<svg width="16" height="17" viewBox="0 0 16 17" fill="none" xmlns="http://www.w3.org/2000/svg">
<path fill-rule="evenodd" clip-rule="evenodd" d="M7.99999 15.8571C3.9499 15.8571 0.666656 12.5739 0.666656 8.52379C0.666656 4.47371 3.9499 1.19046 7.99999 1.19046C12.0501 1.19046 15.3333 4.47371 15.3333 8.52379C15.3333 12.5739 12.0501 15.8571 7.99999 15.8571ZM7.99999 14.5238C11.3137 14.5238 14 11.8375 14 8.52379C14 5.21008 11.3137 2.52379 7.99999 2.52379C4.68628 2.52379 1.99999 5.21008 1.99999 8.52379C1.99999 11.8375 4.68628 14.5238 7.99999 14.5238ZM11.3333 7.85713H8.66666V5.19046H7.33332V7.85713H4.66666V9.19046H7.33332V11.8571H8.66666V9.19046H11.3333V7.85713Z" fill="white"/>
</svg>
