<svg width="18" height="15" viewBox="0 0 18 15" fill="none" xmlns="http://www.w3.org/2000/svg">
<path fill-rule="evenodd" clip-rule="evenodd" d="M16.3636 1.63636C17.2674 1.63636 18 2.36899 18 3.27273V13.0909C18 13.9946 17.2674 14.7273 16.3636 14.7273H1.63636C0.732625 14.7273 0 13.9946 0 13.0909V1.63636C0 0.732625 0.732625 0 1.63636 0H6.54545C7.46182 0 8.04513 0.389005 8.63098 1.12815C8.64718 1.14859 8.68662 1.19942 8.73032 1.25574L8.73046 1.25591C8.7922 1.33548 8.8624 1.42594 8.88749 1.45703C8.91285 1.48848 8.93424 1.51449 8.95191 1.53599C9.02387 1.6235 9.0343 1.63619 9.00146 1.63636H16.3636ZM16.3636 4.90908V3.27272L8.99561 3.27271C8.40803 3.26956 8.02529 2.99447 7.61386 2.48444C7.57657 2.43822 7.48598 2.32144 7.42021 2.23666L7.4201 2.23652C7.38575 2.19224 7.3582 2.15672 7.34857 2.14458C7.0421 1.75791 6.85983 1.63636 6.54545 1.63636H1.63636V4.90908H16.3636ZM16.3636 6.54544H1.63636V13.0909H16.3636V6.54544Z" fill="#C2CFE0"/>
</svg>
