<svg width="17" height="18" viewBox="0 0 17 18" fill="none" xmlns="http://www.w3.org/2000/svg">
<path fill-rule="evenodd" clip-rule="evenodd" d="M11.5874 4.51792C10.8396 3.19507 9.56338 2.46363 8.18182 2.46363C5.99954 2.46363 4.09091 4.26901 4.09091 7.36052C4.09091 9.91037 3.51345 11.5146 2.42058 12.7032C2.24872 12.8901 1.8786 13.2335 1.63636 13.4553V13.9147H14.7273V13.455C14.4831 13.2305 14.1141 12.8869 13.942 12.6989C13.6601 12.3911 13.4125 12.0559 13.2003 11.684L14.4171 10.4673C14.6094 10.907 14.8544 11.2728 15.1489 11.5944C15.2855 11.7435 15.6569 12.086 15.9029 12.3128L15.903 12.3129L15.9032 12.313C16.0165 12.4176 16.1032 12.4975 16.128 12.5226L16.3636 12.7615V15.5504H11.3517C11.147 16.3558 10.6425 17.0612 9.89002 17.5202C8.84116 18.1599 7.52248 18.1599 6.47362 17.5202C5.62099 17.0001 5.1495 16.419 4.98107 15.5504H0V12.7615L0.235607 12.5226C0.262959 12.4951 0.353417 12.4119 0.470186 12.3046C0.716982 12.0776 1.08131 11.7426 1.21578 11.5964C2.02008 10.7216 2.45455 9.51461 2.45455 7.36052C2.45455 4.03127 4.28347 1.7322 6.65616 1.04349C6.74199 0.822131 6.87741 0.616349 7.06133 0.443618C7.69113 -0.147873 8.6725 -0.147873 9.30231 0.443618C9.48663 0.616729 9.62224 0.823037 9.70804 1.04496C10.9224 1.39943 11.9954 2.17736 12.753 3.29841L11.5874 4.51792ZM6.69155 15.5504C6.80715 15.7653 7.00417 15.9276 7.32597 16.1239C7.85145 16.4445 8.5121 16.4445 9.03758 16.1239C9.28091 15.9755 9.47106 15.7791 9.60273 15.5504H6.69155ZM14.1488 5.14874L10.6364 8.66111L8.76039 6.78511L7.60331 7.94219L10.6364 10.9753L15.3058 6.30583L14.1488 5.14874Z" fill="#C2CFE0"/>
</svg>
