<svg width="56" height="56" viewBox="0 0 56 56" fill="none" xmlns="http://www.w3.org/2000/svg">
<g id="24 / notifications / bell-alert">
<path id="icon" fill-rule="evenodd" clip-rule="evenodd" d="M44.3334 23.3333C44.3334 13.8619 39.1105 7.28817 32.3527 5.31466C32.108 4.68151 31.7212 4.0929 31.1956 3.599C29.3994 1.91144 26.6007 1.91144 24.8046 3.599C24.2801 4.09181 23.8939 4.67893 23.6491 5.31049C16.8826 7.2754 11.6667 13.8348 11.6667 23.3333C11.6667 29.4791 10.4277 32.9228 8.13399 35.4184C7.7506 35.8356 6.71207 36.791 6.00825 37.4384L6.00793 37.4387L6.00766 37.439L6.00759 37.439L6.00726 37.4393L6.0071 37.4395L6.00705 37.4395C5.67433 37.7456 5.41662 37.9827 5.33867 38.0612L4.66675 38.7426V46.6995H18.8723C19.3526 49.1776 20.6972 50.8356 23.1288 52.3194C26.12 54.1448 29.8806 54.1448 32.8718 52.3194C35.0178 51.0099 36.4566 48.9973 37.0404 46.6995H51.3334V38.7426L50.6615 38.0612C50.5908 37.9895 50.3433 37.7612 50.0198 37.4628L50.0197 37.4627L50.0191 37.4621C49.3173 36.8148 48.2585 35.838 47.8693 35.4129C45.574 32.9056 44.3334 29.4575 44.3334 23.3333ZM32.0527 46.6995H23.7504C24.0801 47.3128 24.642 47.7759 25.5597 48.3359C27.0583 49.2504 28.9424 49.2504 30.4409 48.3359C31.1349 47.9124 31.6771 47.3521 32.0527 46.6995ZM44.4271 38.564C44.9181 39.1003 45.9705 40.0807 46.6667 40.7212V42.0329H9.33339V40.7222C10.0242 40.0892 11.0797 39.1096 11.5699 38.5764C14.6866 35.1853 16.3334 30.6082 16.3334 23.3333C16.3334 14.5131 21.7765 9.36223 28.0001 9.36223C34.206 9.36223 39.6667 14.5397 39.6667 23.3333C39.6667 30.5849 41.314 35.1633 44.4271 38.564ZM28.0008 37.3295C29.2899 37.3295 30.3349 36.2848 30.3349 34.9961C30.3349 33.7075 29.2899 32.6628 28.0008 32.6628C26.7118 32.6628 25.6667 33.7075 25.6667 34.9961C25.6667 36.2848 26.7118 37.3295 28.0008 37.3295ZM30.3418 16.3295H25.6736V30.3295H30.3418V16.3295Z" fill="#FF0000"/>
</g>
</svg>
