<svg width="198" height="48" viewBox="0 0 198 48" fill="none" xmlns="http://www.w3.org/2000/svg">
<rect width="198" height="48" rx="6" fill="#ECF0F4"/>
<path d="M26.0817 18.16H29.8097L32.0657 23.952L32.8337 26.4H32.9457L33.6977 23.952L35.9697 18.16H39.6977V30H37.2657V21.216H37.1377L36.0337 24.48L34.0017 29.52H31.7617L29.7457 24.48L28.6257 21.216H28.4977V30H26.0817V18.16ZM43.8283 30.08C43.007 30.08 42.383 29.8667 41.9563 29.44C41.5296 29.0027 41.3163 28.3947 41.3163 27.616C41.3163 26.7413 41.583 26.0853 42.1163 25.648C42.6496 25.2107 43.4816 24.9493 44.6123 24.864L46.6123 24.72V24.624C46.6123 24.336 46.5856 24.1013 46.5323 23.92C46.4896 23.728 46.4043 23.5733 46.2763 23.456C46.1483 23.3387 45.967 23.2587 45.7323 23.216C45.4976 23.1627 45.1883 23.136 44.8043 23.136C44.4096 23.136 43.9616 23.1627 43.4603 23.216C42.9696 23.2693 42.495 23.3387 42.0363 23.424L41.8603 21.568C42.4683 21.4507 43.0496 21.3707 43.6043 21.328C44.1696 21.2747 44.7083 21.248 45.2203 21.248C46.607 21.248 47.631 21.488 48.2923 21.968C48.9536 22.4373 49.2843 23.1733 49.2843 24.176V30H47.0923L46.8523 28.944H46.7083C46.2816 29.328 45.823 29.616 45.3323 29.808C44.8416 29.9893 44.3403 30.08 43.8283 30.08ZM44.9643 28.24C45.2416 28.24 45.5296 28.1867 45.8283 28.08C46.1376 27.9627 46.399 27.8187 46.6123 27.648V26.112L45.4283 26.208C44.895 26.2507 44.5216 26.3573 44.3083 26.528C44.1056 26.688 44.0043 26.9493 44.0043 27.312C44.0043 27.9307 44.3243 28.24 44.9643 28.24ZM51.1873 21.36H53.4273L53.5713 22.64H53.6353C54.062 22.32 54.5206 22.0267 55.0113 21.76C55.502 21.4933 55.966 21.312 56.4033 21.216H57.2353V23.456H56.3073C55.8593 23.5093 55.4113 23.6107 54.9633 23.76C54.526 23.9093 54.158 24.08 53.8593 24.272V30H51.1873V21.36ZM62.2346 30.144C60.7412 30.144 59.6266 29.7813 58.8906 29.056C58.1652 28.32 57.8026 27.1947 57.8026 25.68C57.8026 22.704 59.2799 21.216 62.2346 21.216C62.6932 21.216 63.1519 21.2427 63.6106 21.296C64.0799 21.3387 64.4959 21.4027 64.8586 21.488V23.584C64.0052 23.456 63.2159 23.392 62.4906 23.392C61.7546 23.392 61.2319 23.568 60.9226 23.92C60.6132 24.2613 60.4586 24.8427 60.4586 25.664C60.4586 26.496 60.6079 27.088 60.9066 27.44C61.2159 27.792 61.7332 27.968 62.4586 27.968C62.9386 27.968 63.3599 27.9573 63.7226 27.936C64.0852 27.904 64.4639 27.856 64.8586 27.792V29.872C64.5172 29.9573 64.1119 30.0213 63.6426 30.064C63.1839 30.1173 62.7146 30.144 62.2346 30.144ZM68.5002 30.08C67.6789 30.08 67.0549 29.8667 66.6282 29.44C66.2015 29.0027 65.9882 28.3947 65.9882 27.616C65.9882 26.7413 66.2549 26.0853 66.7882 25.648C67.3215 25.2107 68.1535 24.9493 69.2842 24.864L71.2842 24.72V24.624C71.2842 24.336 71.2575 24.1013 71.2042 23.92C71.1615 23.728 71.0762 23.5733 70.9482 23.456C70.8202 23.3387 70.6389 23.2587 70.4042 23.216C70.1695 23.1627 69.8602 23.136 69.4762 23.136C69.0815 23.136 68.6335 23.1627 68.1322 23.216C67.6415 23.2693 67.1669 23.3387 66.7082 23.424L66.5322 21.568C67.1402 21.4507 67.7215 21.3707 68.2762 21.328C68.8415 21.2747 69.3802 21.248 69.8922 21.248C71.2789 21.248 72.3029 21.488 72.9642 21.968C73.6255 22.4373 73.9562 23.1733 73.9562 24.176V30H71.7642L71.5242 28.944H71.3802C70.9535 29.328 70.4949 29.616 70.0042 29.808C69.5135 29.9893 69.0122 30.08 68.5002 30.08ZM69.6362 28.24C69.9135 28.24 70.2015 28.1867 70.5002 28.08C70.8095 27.9627 71.0709 27.8187 71.2842 27.648V26.112L70.1002 26.208C69.5669 26.2507 69.1935 26.3573 68.9802 26.528C68.7775 26.688 68.6762 26.9493 68.6762 27.312C68.6762 27.9307 68.9962 28.24 69.6362 28.24ZM75.8592 21.36H78.0992L78.2432 22.64H78.3072C78.7339 22.32 79.1925 22.0267 79.6832 21.76C80.1739 21.4933 80.6379 21.312 81.0752 21.216H81.9072V23.456H80.9792C80.5312 23.5093 80.0832 23.6107 79.6352 23.76C79.1979 23.9093 78.8299 24.08 78.5312 24.272V30H75.8592V21.36ZM90.1877 30.144C88.6944 30.144 87.5797 29.7813 86.8437 29.056C86.1184 28.32 85.7557 27.1947 85.7557 25.68C85.7557 22.704 87.233 21.216 90.1877 21.216C90.6464 21.216 91.105 21.2427 91.5637 21.296C92.033 21.3387 92.449 21.4027 92.8117 21.488V23.584C91.9584 23.456 91.169 23.392 90.4437 23.392C89.7077 23.392 89.185 23.568 88.8757 23.92C88.5664 24.2613 88.4117 24.8427 88.4117 25.664C88.4117 26.496 88.561 27.088 88.8597 27.44C89.169 27.792 89.6864 27.968 90.4117 27.968C90.8917 27.968 91.313 27.9573 91.6757 27.936C92.0384 27.904 92.417 27.856 92.8117 27.792V29.872C92.4704 29.9573 92.065 30.0213 91.5957 30.064C91.137 30.1173 90.6677 30.144 90.1877 30.144ZM98.4887 30.16C96.9847 30.16 95.838 29.7813 95.0487 29.024C94.2594 28.256 93.8647 27.1413 93.8647 25.68C93.8647 24.2187 94.2594 23.1093 95.0487 22.352C95.838 21.584 96.9847 21.2 98.4887 21.2C99.9927 21.2 101.134 21.584 101.913 22.352C102.691 23.1093 103.081 24.2187 103.081 25.68C103.081 27.1413 102.691 28.256 101.913 29.024C101.134 29.7813 99.9927 30.16 98.4887 30.16ZM98.4887 28.128C98.8407 28.128 99.1394 28.0907 99.3847 28.016C99.63 27.9307 99.8274 27.792 99.9767 27.6C100.126 27.408 100.233 27.1573 100.297 26.848C100.371 26.528 100.409 26.1387 100.409 25.68C100.409 25.2213 100.371 24.8373 100.297 24.528C100.233 24.2187 100.126 23.968 99.9767 23.776C99.8274 23.584 99.63 23.4507 99.3847 23.376C99.1394 23.2907 98.8407 23.248 98.4887 23.248C98.1367 23.248 97.838 23.2907 97.5927 23.376C97.3474 23.4507 97.1447 23.584 96.9847 23.776C96.8354 23.968 96.7234 24.2187 96.6487 24.528C96.5847 24.8373 96.5527 25.2213 96.5527 25.68C96.5527 26.1387 96.5847 26.528 96.6487 26.848C96.7234 27.1573 96.8354 27.408 96.9847 27.6C97.1447 27.792 97.3474 27.9307 97.5927 28.016C97.838 28.0907 98.1367 28.128 98.4887 28.128ZM104.656 21.36H106.88L107.024 22.352H107.136C107.744 21.9787 108.299 21.696 108.8 21.504C109.312 21.3013 109.808 21.2 110.288 21.2C111.333 21.2 112.053 21.5893 112.448 22.368H112.528C113.136 21.984 113.696 21.696 114.208 21.504C114.72 21.3013 115.211 21.2 115.68 21.2C116.448 21.2 117.045 21.408 117.472 21.824C117.899 22.24 118.112 22.832 118.112 23.6V30H115.456V24.544C115.456 24.1173 115.371 23.8133 115.2 23.632C115.04 23.4507 114.789 23.36 114.448 23.36C114.235 23.36 113.968 23.408 113.648 23.504C113.339 23.6 113.029 23.728 112.72 23.888V30H110.064V24.544C110.064 24.1173 109.979 23.8133 109.808 23.632C109.648 23.4507 109.397 23.36 109.056 23.36C108.843 23.36 108.571 23.4133 108.24 23.52C107.92 23.616 107.611 23.7387 107.312 23.888V30H104.656V21.36ZM124.239 30.16C122.735 30.16 121.588 29.7813 120.799 29.024C120.009 28.256 119.615 27.1413 119.615 25.68C119.615 24.2187 120.009 23.1093 120.799 22.352C121.588 21.584 122.735 21.2 124.239 21.2C125.743 21.2 126.884 21.584 127.663 22.352C128.441 23.1093 128.831 24.2187 128.831 25.68C128.831 27.1413 128.441 28.256 127.663 29.024C126.884 29.7813 125.743 30.16 124.239 30.16ZM124.239 28.128C124.591 28.128 124.889 28.0907 125.135 28.016C125.38 27.9307 125.577 27.792 125.727 27.6C125.876 27.408 125.983 27.1573 126.047 26.848C126.121 26.528 126.159 26.1387 126.159 25.68C126.159 25.2213 126.121 24.8373 126.047 24.528C125.983 24.2187 125.876 23.968 125.727 23.776C125.577 23.584 125.38 23.4507 125.135 23.376C124.889 23.2907 124.591 23.248 124.239 23.248C123.887 23.248 123.588 23.2907 123.343 23.376C123.097 23.4507 122.895 23.584 122.735 23.776C122.585 23.968 122.473 24.2187 122.399 24.528C122.335 24.8373 122.303 25.2213 122.303 25.68C122.303 26.1387 122.335 26.528 122.399 26.848C122.473 27.1573 122.585 27.408 122.735 27.6C122.895 27.792 123.097 27.9307 123.343 28.016C123.588 28.0907 123.887 28.128 124.239 28.128ZM132.574 21.632V21.36H135.438L136.894 25.952L137.342 27.856H137.518L137.982 25.952L139.454 21.36H142.27V21.632L139.038 30H135.758L132.574 21.632ZM144.718 20.112C144.196 20.112 143.822 20 143.598 19.776C143.374 19.552 143.262 19.1893 143.262 18.688C143.262 18.1867 143.374 17.824 143.598 17.6C143.822 17.376 144.196 17.264 144.718 17.264C145.252 17.264 145.63 17.3813 145.854 17.616C146.089 17.8507 146.206 18.208 146.206 18.688C146.206 19.168 146.094 19.5253 145.87 19.76C145.646 19.9947 145.262 20.112 144.718 20.112ZM143.39 21.36H146.062V30H143.39V21.36ZM151.119 30.176C150.639 30.176 150.095 30.144 149.487 30.08C148.89 30.016 148.282 29.92 147.663 29.792V27.936C148.303 28.064 148.895 28.1653 149.439 28.24C149.983 28.3147 150.5 28.352 150.991 28.352C151.503 28.352 151.876 28.288 152.111 28.16C152.356 28.032 152.479 27.8347 152.479 27.568C152.479 27.2907 152.356 27.088 152.111 26.96C151.876 26.832 151.503 26.736 150.991 26.672C150.639 26.6293 150.271 26.576 149.887 26.512C149.514 26.4373 149.167 26.3093 148.847 26.128C148.527 25.9467 148.26 25.6853 148.047 25.344C147.844 25.0027 147.743 24.5333 147.743 23.936C147.743 23.072 148.074 22.3947 148.735 21.904C149.396 21.4133 150.308 21.168 151.471 21.168C151.695 21.168 151.919 21.1733 152.143 21.184C152.378 21.1947 152.623 21.216 152.879 21.248C153.135 21.2693 153.407 21.3013 153.695 21.344C153.994 21.3867 154.324 21.44 154.687 21.504L154.607 23.488C153.999 23.36 153.455 23.264 152.975 23.2C152.495 23.1253 152.084 23.088 151.743 23.088C150.772 23.088 150.287 23.3493 150.287 23.872C150.287 24.1707 150.431 24.3733 150.719 24.48C151.007 24.5867 151.455 24.6827 152.063 24.768C152.511 24.832 152.916 24.9227 153.279 25.04C153.642 25.1467 153.951 25.3013 154.207 25.504C154.463 25.7067 154.66 25.9627 154.799 26.272C154.948 26.5813 155.023 26.9547 155.023 27.392C155.023 28.2987 154.692 28.992 154.031 29.472C153.38 29.9413 152.41 30.176 151.119 30.176ZM160.371 30.192C159.379 30.192 158.627 29.9627 158.115 29.504C157.613 29.0347 157.363 28.3467 157.363 27.44V23.6H155.843V21.36H157.539L157.939 18.864L160.019 18.64V21.36H162.243V23.6H160.035V26.832C160.035 27.312 160.125 27.6533 160.307 27.856C160.499 28.0587 160.819 28.16 161.267 28.16C161.565 28.16 161.901 28.096 162.275 27.968V29.952C162.029 30.0267 161.736 30.0853 161.395 30.128C161.053 30.1707 160.712 30.192 160.371 30.192ZM167.895 30.16C166.391 30.16 165.244 29.7813 164.455 29.024C163.666 28.256 163.271 27.1413 163.271 25.68C163.271 24.2187 163.666 23.1093 164.455 22.352C165.244 21.584 166.391 21.2 167.895 21.2C169.399 21.2 170.54 21.584 171.319 22.352C172.098 23.1093 172.487 24.2187 172.487 25.68C172.487 27.1413 172.098 28.256 171.319 29.024C170.54 29.7813 169.399 30.16 167.895 30.16ZM167.895 28.128C168.247 28.128 168.546 28.0907 168.791 28.016C169.036 27.9307 169.234 27.792 169.383 27.6C169.532 27.408 169.639 27.1573 169.703 26.848C169.778 26.528 169.815 26.1387 169.815 25.68C169.815 25.2213 169.778 24.8373 169.703 24.528C169.639 24.2187 169.532 23.968 169.383 23.776C169.234 23.584 169.036 23.4507 168.791 23.376C168.546 23.2907 168.247 23.248 167.895 23.248C167.543 23.248 167.244 23.2907 166.999 23.376C166.754 23.4507 166.551 23.584 166.391 23.776C166.242 23.968 166.13 24.2187 166.055 24.528C165.991 24.8373 165.959 25.2213 165.959 25.68C165.959 26.1387 165.991 26.528 166.055 26.848C166.13 27.1573 166.242 27.408 166.391 27.6C166.551 27.792 166.754 27.9307 166.999 28.016C167.244 28.0907 167.543 28.128 167.895 28.128Z" fill="#4E738A"/>
</svg>
