<svg width="198" height="48" viewBox="0 0 198 48" fill="none" xmlns="http://www.w3.org/2000/svg">
<rect width="198" height="48" rx="6" fill="#1226AA"/>
<path d="M66.1016 29.856L69.9896 18.16H74.0536L77.9416 29.856V30H75.3016L74.3576 27.152H69.6696L68.7416 30H66.1016V29.856ZM73.7336 25.024L72.8536 22.368L72.1336 20.048H71.8936L71.1896 22.384L70.3096 25.024H73.7336ZM82.3863 30.192C81.3943 30.192 80.6423 29.9627 80.1303 29.504C79.629 29.0347 79.3783 28.3467 79.3783 27.44V23.6H77.8583V21.36H79.5543L79.9543 18.864L82.0343 18.64V21.36H84.2583V23.6H82.0503V26.832C82.0503 27.312 82.141 27.6533 82.3223 27.856C82.5143 28.0587 82.8343 28.16 83.2823 28.16C83.581 28.16 83.917 28.096 84.2903 27.968V29.952C84.045 30.0267 83.7516 30.0853 83.4103 30.128C83.069 30.1707 82.7276 30.192 82.3863 30.192ZM89.7826 30.144C86.8066 30.144 85.3186 28.6773 85.3186 25.744C85.3186 24.2507 85.6919 23.1253 86.4386 22.368C87.1852 21.6 88.2999 21.216 89.7826 21.216C92.3212 21.216 93.5906 22.5013 93.5906 25.072C93.5906 25.5733 93.5426 26.016 93.4466 26.4H87.9746C88.0066 26.7413 88.0652 27.024 88.1506 27.248C88.2359 27.472 88.3586 27.648 88.5186 27.776C88.6786 27.904 88.8812 27.9947 89.1266 28.048C89.3826 28.1013 89.6866 28.128 90.0386 28.128C90.2732 28.128 90.5239 28.1173 90.7906 28.096C91.0679 28.0747 91.3452 28.048 91.6226 28.016C91.8999 27.984 92.1719 27.9467 92.4386 27.904C92.7052 27.8507 92.9506 27.7973 93.1746 27.744L93.2546 29.648C92.7426 29.7973 92.1826 29.9147 91.5746 30C90.9666 30.096 90.3692 30.144 89.7826 30.144ZM89.6706 23.088C89.1159 23.088 88.7052 23.2373 88.4386 23.536C88.1719 23.824 88.0119 24.3093 87.9586 24.992H91.2386C91.2172 24.2987 91.0839 23.808 90.8386 23.52C90.6039 23.232 90.2146 23.088 89.6706 23.088ZM95.1561 21.36H97.3961L97.5401 22.352H97.6521C98.4521 21.9467 99.1401 21.6533 99.7161 21.472C100.303 21.2907 100.841 21.2 101.332 21.2C102.1 21.2 102.697 21.408 103.124 21.824C103.551 22.24 103.764 22.832 103.764 23.6V30H101.092V24.496C101.092 24.0693 101.012 23.7653 100.852 23.584C100.692 23.4027 100.441 23.312 100.1 23.312C99.8014 23.312 99.4494 23.3653 99.0441 23.472C98.6387 23.5787 98.2334 23.7227 97.8281 23.904V30H95.1561V21.36ZM108.919 30.16C107.714 30.16 106.802 29.808 106.183 29.104C105.575 28.4 105.271 27.3227 105.271 25.872C105.271 25.0933 105.383 24.416 105.607 23.84C105.831 23.2533 106.151 22.768 106.567 22.384C106.983 21.9893 107.485 21.696 108.071 21.504C108.669 21.3013 109.335 21.2 110.071 21.2C110.338 21.2 110.594 21.2107 110.839 21.232C111.085 21.2533 111.325 21.2747 111.559 21.296V17.072H114.231V30H111.895L111.687 28.944H111.559C110.994 29.7547 110.114 30.16 108.919 30.16ZM109.719 28.192C110.295 28.192 110.743 28.0533 111.063 27.776C111.394 27.488 111.559 27.024 111.559 26.384V23.216C111.346 23.1733 111.106 23.1413 110.839 23.12C110.573 23.088 110.29 23.072 109.991 23.072C109.607 23.072 109.287 23.1147 109.031 23.2C108.775 23.2747 108.567 23.4133 108.407 23.616C108.247 23.808 108.13 24.0693 108.055 24.4C107.991 24.7307 107.959 25.152 107.959 25.664C107.959 26.144 107.986 26.5493 108.039 26.88C108.103 27.2 108.205 27.456 108.343 27.648C108.482 27.84 108.663 27.9787 108.887 28.064C109.111 28.1493 109.389 28.192 109.719 28.192ZM120.283 30.144C117.307 30.144 115.819 28.6773 115.819 25.744C115.819 24.2507 116.192 23.1253 116.939 22.368C117.685 21.6 118.8 21.216 120.283 21.216C122.821 21.216 124.091 22.5013 124.091 25.072C124.091 25.5733 124.043 26.016 123.947 26.4H118.475C118.507 26.7413 118.565 27.024 118.651 27.248C118.736 27.472 118.859 27.648 119.019 27.776C119.179 27.904 119.381 27.9947 119.627 28.048C119.883 28.1013 120.187 28.128 120.539 28.128C120.773 28.128 121.024 28.1173 121.291 28.096C121.568 28.0747 121.845 28.048 122.123 28.016C122.4 27.984 122.672 27.9467 122.939 27.904C123.205 27.8507 123.451 27.7973 123.675 27.744L123.755 29.648C123.243 29.7973 122.683 29.9147 122.075 30C121.467 30.096 120.869 30.144 120.283 30.144ZM120.171 23.088C119.616 23.088 119.205 23.2373 118.939 23.536C118.672 23.824 118.512 24.3093 118.459 24.992H121.739C121.717 24.2987 121.584 23.808 121.339 23.52C121.104 23.232 120.715 23.088 120.171 23.088ZM125.656 21.36H127.896L128.04 22.64H128.104C128.531 22.32 128.989 22.0267 129.48 21.76C129.971 21.4933 130.435 21.312 130.872 21.216H131.704V23.456H130.776C130.328 23.5093 129.88 23.6107 129.432 23.76C128.995 23.9093 128.627 24.08 128.328 24.272V30H125.656V21.36Z" fill="white"/>
</svg>
