<svg width="16" height="19" viewBox="0 0 16 19" fill="none" xmlns="http://www.w3.org/2000/svg">
<path d="M15.7954 7.11326L8.21644 0.16588C7.9695 -0.0600314 7.58973 -0.0545248 7.34971 0.178315L0.191806 7.12566C0.0692763 7.2446 0 7.4082 0 7.5789V17.5578C0 17.9067 0.282718 18.1894 0.631586 18.1894H5.89473C6.24356 18.1894 6.52632 17.9067 6.52632 17.5578V12.9263H9.47368V17.5578C9.47368 17.9067 9.7564 18.1894 10.1053 18.1894H15.3684C15.7172 18.1894 16 17.9069 16 17.5578V7.57894C16 7.40188 15.9259 7.23305 15.7954 7.11326ZM14.7368 16.9263H10.7369V12.2947C10.7369 11.9459 10.4541 11.6631 10.1053 11.6631H5.89477C5.54593 11.6631 5.26318 11.9459 5.26318 12.2947V16.9263H1.26317V7.8461L7.80192 1.49979L14.7369 7.85682V16.9263H14.7368Z" fill="#000"/>
</svg>
