<svg width="72" height="73" viewBox="0 0 72 73" fill="none" xmlns="http://www.w3.org/2000/svg">
<circle cx="36" cy="36.0565" r="36" fill="#F7685B" fill-opacity="0.3"/>
<circle cx="36" cy="36.0565" r="28.8" fill="#F7685B"/>
<path fill-rule="evenodd" clip-rule="evenodd" d="M29.8482 25.1046C31.4797 23.4731 33.6926 22.5565 36 22.5565C38.3074 22.5565 40.5203 23.4731 42.1518 25.1046C43.7834 26.7362 44.7 28.9491 44.7 31.2565C44.7 35.2354 45.5506 37.6834 46.3168 39.0882C46.702 39.7944 47.0742 40.2523 47.3264 40.5186C47.4529 40.6521 47.5504 40.7386 47.6056 40.7846C47.6313 40.806 47.6479 40.8187 47.6541 40.8233C48.1885 41.1934 48.4246 41.867 48.2356 42.4911C48.0441 43.1238 47.461 43.5565 46.8 43.5565H25.2C24.539 43.5565 23.9559 43.1238 23.7644 42.4911C23.5754 41.867 23.8114 41.1934 24.3459 40.8233C24.352 40.8192 24.358 40.815 24.3642 40.8109L24.3607 40.8132L24.3548 40.8173L24.3466 40.823C24.3444 40.8245 24.3433 40.8253 24.3432 40.8254C24.3431 40.8254 24.3436 40.8251 24.3447 40.8243C24.3451 40.824 24.3455 40.8237 24.3459 40.8233C24.3521 40.8187 24.3687 40.806 24.3944 40.7846C24.4496 40.7386 24.547 40.6521 24.6736 40.5186C24.9258 40.2523 25.298 39.7944 25.6831 39.0882C26.4494 37.6834 27.3 35.2354 27.3 31.2565C27.3 28.9491 28.2166 26.7362 29.8482 25.1046ZM24.3642 40.8109C24.3642 40.8109 24.3642 40.8109 24.3642 40.8109L24.3642 40.8109L24.3642 40.8109ZM43.7005 40.5565C43.6947 40.5459 43.6889 40.5353 43.6831 40.5247C42.6494 38.6295 41.7 35.6775 41.7 31.2565C41.7 29.7447 41.0995 28.2949 40.0305 27.2259C38.9615 26.157 37.5117 25.5565 36 25.5565C34.4883 25.5565 33.0384 26.157 31.9695 27.2259C30.9005 28.2949 30.3 29.7447 30.3 31.2565C30.3 35.6775 29.3506 38.6295 28.3168 40.5247C28.311 40.5353 28.3053 40.5459 28.2995 40.5565H43.7005ZM24.366 40.8097C24.366 40.8097 24.366 40.8097 24.366 40.8097L24.3657 40.8099C24.3658 40.8098 24.3659 40.8097 24.366 40.8097Z" fill="white"/>
<path fill-rule="evenodd" clip-rule="evenodd" d="M33.1713 45.559C33.8879 45.1433 34.8058 45.3872 35.2215 46.1038C35.3006 46.2402 35.4142 46.3534 35.5508 46.4321C35.6874 46.5108 35.8423 46.5522 36 46.5522C36.1577 46.5522 36.3126 46.5108 36.4492 46.4321C36.5858 46.3534 36.6994 46.2402 36.7785 46.1038C37.1942 45.3872 38.1121 45.1433 38.8286 45.559C39.5452 45.9746 39.7892 46.8925 39.3735 47.6091C39.0307 48.2001 38.5386 48.6907 37.9465 49.0317C37.3545 49.3727 36.6832 49.5522 36 49.5522C35.3167 49.5522 34.6455 49.3727 34.0534 49.0317C33.4614 48.6907 32.9693 48.2001 32.6265 47.6091C32.2108 46.8925 32.4547 45.9746 33.1713 45.559Z" fill="white"/>
</svg>
