<?xml version="1.0" ?><svg id="Outline" viewBox="0 0 512 512" xmlns="http://www.w3.org/2000/svg"><defs><style>.cls-1{fill:#262626;}</style></defs><path class="cls-1" d="M354.26,160.13a137.88,137.88,0,0,0-96.21-40.6h-.15a11.34,11.34,0,0,0-.14,22.67,116,116,0,1,1-85.1,35.55l1.12,40.62a11.33,11.33,0,0,0,11.32,11h.32a11.34,11.34,0,0,0,11-11.65l-1.83-66.62v0a11.31,11.31,0,0,0-11.64-11h0l-66.64,1.83a11.34,11.34,0,0,0,.3,22.67H117l37.93-1c-50.74,54.28-49.64,139.73,3.29,192.66A138.65,138.65,0,1,0,354.26,160.13Z"/></svg>