<svg width="26" height="24" viewBox="0 0 26 24" fill="none" xmlns="http://www.w3.org/2000/svg">
<path fill-rule="evenodd" clip-rule="evenodd" d="M1.12 12C1.12 18.0751 6.24186 23 12.56 23C18.8781 23 24 18.0751 24 12C24 5.92487 18.8781 1 12.56 1C6.24186 1 1.12 5.92487 1.12 12ZM21.92 12C21.92 16.9706 17.7294 21 12.56 21C7.39061 21 3.2 16.9706 3.2 12C3.2 7.02944 7.39061 3 12.56 3C17.7294 3 21.92 7.02944 21.92 12ZM12.5603 17.9983C13.1349 17.9983 13.6007 17.5506 13.6007 16.9983C13.6007 16.4461 13.1349 15.9983 12.5603 15.9983C11.9858 15.9983 11.52 16.4461 11.52 16.9983C11.52 17.5506 11.9858 17.9983 12.5603 17.9983ZM13.6038 5.99835H11.5231V13.9983H13.6038V5.99835Z" fill="white"/>
</svg>
