<svg width="784" height="534" viewBox="0 0 784 534" fill="none" xmlns="http://www.w3.org/2000/svg">
<path d="M783.38 0H0.619995V522H783.38V0Z" fill="#6CA8FF"/>
<path d="M0 338.6C130.77 338.6 130.77 464.14 261.54 464.14C392.31 464.14 392.31 338.6 523.08 338.6C653.85 338.6 653.85 464.14 784.62 464.14V522H0.62L0 338.6Z" fill="#5577F2"/>
<path d="M216.06 234.11H214.06V531.38H216.06V234.11Z" fill="#1226AA"/>
<path d="M372.66 231.88H370.66V529.15H372.66V231.88Z" fill="#1226AA"/>
<path d="M529.26 229.66H527.26V526.93H529.26V229.66Z" fill="#1226AA"/>
<path d="M685.86 227.43H683.86V524.7H685.86V227.43Z" fill="#1226AA"/>
<path d="M59.46 236.33H57.46V533.6H59.46V236.33Z" fill="#1226AA"/>
<path d="M783.38 446.41C717.7 446.41 684.38 414.41 652.13 383.41C620.13 352.74 587.13 321.02 522.25 321.02C457.37 321.02 424.33 352.74 392.38 383.41C360.15 414.41 326.81 446.41 261.13 446.41C195.45 446.41 162.13 414.41 129.87 383.41C97.92 352.79 64.88 321.07 0 321.07V319.07C65.68 319.07 99 351.07 131.26 382.02C163.26 412.69 196.26 444.41 261.13 444.41C326 444.41 359.05 412.69 391 382C423.24 351.05 456.57 319.05 522.25 319.05C587.93 319.05 621.25 351.05 653.51 382C685.51 412.67 718.51 444.39 783.38 444.39V446.41Z" fill="#C0E9FC"/>
<path d="M784.62 438C744.15 438 723.95 395.22 704.41 353.85C685.41 313.61 665.75 272 627.82 272C589.89 272 570.23 313.61 551.22 353.85C531.68 395.22 511.48 438 471 438C430.52 438 410.33 395.22 390.79 353.85C371.79 313.61 352.14 272 314.2 272C276.26 272 256.62 313.61 237.61 353.85C218.09 395.22 197.88 438 157.42 438C116.96 438 96.75 395.22 77.21 353.85C58.21 313.61 38.55 272 0.619995 272V268C41.09 268 61.29 310.78 80.83 352.15C99.83 392.39 119.49 434 157.42 434C195.35 434 215 392.39 234 352.15C253.53 310.78 273.74 268 314.2 268C354.66 268 374.87 310.78 394.41 352.15C413.43 392.39 433.08 434 471 434C508.92 434 528.59 392.39 547.6 352.15C567.14 310.78 587.35 268 627.82 268C668.29 268 688.49 310.78 708.03 352.15C727 392.39 746.69 434 784.62 434V438Z" fill="#060B67"/>
<path d="M329.36 280.2C333.502 280.2 336.86 276.842 336.86 272.7C336.86 268.558 333.502 265.2 329.36 265.2C325.218 265.2 321.86 268.558 321.86 272.7C321.86 276.842 325.218 280.2 329.36 280.2Z" fill="#060B67"/>
<path d="M329.36 250.63V199.88C329.36 198.507 329.631 197.147 330.156 195.879C330.682 194.61 331.453 193.458 332.424 192.487C333.396 191.517 334.549 190.747 335.818 190.223C337.087 189.698 338.447 189.429 339.82 189.43H417.6C418.973 189.429 420.333 189.698 421.602 190.223C422.871 190.747 424.024 191.517 424.996 192.487C425.967 193.458 426.738 194.61 427.264 195.879C427.789 197.147 428.06 198.507 428.06 199.88V220.7C428.06 223.453 426.975 226.096 425.039 228.054C423.103 230.012 420.473 231.128 417.72 231.16L366.72 231.74C359.561 231.82 352.524 233.603 346.19 236.939C339.855 240.276 334.405 245.072 330.29 250.93C330.224 251.014 330.135 251.076 330.033 251.108C329.931 251.139 329.822 251.138 329.72 251.106C329.618 251.073 329.529 251.01 329.465 250.925C329.401 250.839 329.364 250.737 329.36 250.63Z" fill="#C0E9FC"/>
<path d="M329.88 252.15C329.724 252.151 329.569 252.128 329.42 252.08C329.112 251.982 328.844 251.789 328.653 251.528C328.462 251.268 328.36 250.953 328.36 250.63V199.88C328.365 196.843 329.575 193.932 331.723 191.786C333.871 189.64 336.783 188.433 339.82 188.43H417.6C420.637 188.433 423.549 189.64 425.697 191.786C427.845 193.932 429.055 196.843 429.06 199.88V220.7C429.05 223.712 427.858 226.6 425.742 228.743C423.625 230.886 420.752 232.113 417.74 232.16L366.74 232.74C359.743 232.829 352.866 234.576 346.674 237.837C340.482 241.098 335.152 245.78 331.12 251.5C330.982 251.702 330.797 251.866 330.581 251.98C330.365 252.093 330.124 252.152 329.88 252.15ZM339.82 190.43C337.313 190.43 334.908 191.425 333.134 193.197C331.361 194.969 330.363 197.373 330.36 199.88V249.15C334.612 243.51 340.098 238.918 346.399 235.727C352.7 232.536 359.648 230.83 366.71 230.74L417.71 230.16C420.197 230.121 422.569 229.108 424.317 227.339C426.065 225.571 427.05 223.187 427.06 220.7V199.88C427.057 197.373 426.06 194.969 424.286 193.197C422.512 191.425 420.107 190.43 417.6 190.43H339.82Z" fill="#C0E9FC"/>
<path d="M407.06 199.3H350.36C348.372 199.3 346.76 200.912 346.76 202.9C346.76 204.888 348.372 206.5 350.36 206.5H407.06C409.048 206.5 410.66 204.888 410.66 202.9C410.66 200.912 409.048 199.3 407.06 199.3Z" fill="#6CA8FF"/>
<path d="M366.11 213.59H350.36C348.372 213.59 346.76 215.202 346.76 217.19C346.76 219.178 348.372 220.79 350.36 220.79H366.11C368.098 220.79 369.71 219.178 369.71 217.19C369.71 215.202 368.098 213.59 366.11 213.59Z" fill="#6CA8FF"/>
<path d="M143.52 196.25C119.64 196.25 96.7379 186.764 79.8521 169.878C62.9663 152.992 53.48 130.09 53.48 106.21C53.48 82.3299 62.9663 59.4279 79.8521 42.5421C96.7379 25.6563 119.64 16.17 143.52 16.17C144.037 16.1435 144.555 16.2225 145.041 16.4023C145.527 16.582 145.971 16.8588 146.347 17.2156C146.722 17.5725 147.021 18.002 147.226 18.4781C147.43 18.9542 147.535 19.4669 147.535 19.985C147.535 20.5031 147.43 21.0158 147.226 21.4919C147.021 21.9679 146.722 22.3975 146.347 22.7543C145.971 23.1112 145.527 23.3879 145.041 23.5677C144.555 23.7474 144.037 23.8265 143.52 23.8C127.221 23.8 111.288 28.6332 97.7354 37.6886C84.1832 46.7439 73.6205 59.6146 67.3831 74.673C61.1457 89.7315 59.5137 106.301 62.6935 122.287C65.8733 138.273 73.7221 152.957 85.2473 164.483C96.7726 176.008 111.457 183.857 127.443 187.036C143.429 190.216 159.998 188.584 175.057 182.347C190.115 176.109 202.986 165.547 212.041 151.995C221.097 138.442 225.93 122.509 225.93 106.21C225.98 105.232 226.404 104.311 227.114 103.636C227.824 102.961 228.766 102.585 229.745 102.585C230.724 102.585 231.666 102.961 232.376 103.636C233.086 104.311 233.51 105.232 233.56 106.21C233.56 118.029 231.232 129.732 226.709 140.651C222.186 151.571 215.557 161.492 207.2 169.85C198.842 178.207 188.921 184.836 178.001 189.359C167.082 193.882 155.379 196.21 143.56 196.21L143.52 196.25Z" fill="#5577F2"/>
<path d="M143.52 169C130.804 169.004 118.387 165.146 107.912 157.936C97.4377 150.727 89.3997 140.506 84.8626 128.627C80.3255 116.748 79.5032 103.771 82.5045 91.4145C85.5058 79.0578 92.1893 67.9041 101.67 59.43C102.043 59.0958 102.478 58.8383 102.951 58.6723C103.423 58.5062 103.924 58.4349 104.424 58.4623C104.924 58.4896 105.413 58.6153 105.865 58.8319C106.316 59.0486 106.721 59.3521 107.055 59.725C107.389 60.098 107.647 60.5331 107.813 61.0056C107.979 61.478 108.05 61.9786 108.023 62.4786C107.995 62.9787 107.87 63.4684 107.653 63.9199C107.436 64.3714 107.133 64.7758 106.76 65.11C98.436 72.5548 92.5688 82.3515 89.9346 93.2039C87.3005 104.056 88.0237 115.453 92.0084 125.885C95.9932 136.317 103.052 145.294 112.25 151.627C121.448 157.96 132.353 161.35 143.52 161.35C144.037 161.324 144.555 161.403 145.041 161.582C145.527 161.762 145.971 162.039 146.347 162.396C146.722 162.753 147.021 163.182 147.226 163.658C147.43 164.134 147.535 164.647 147.535 165.165C147.535 165.683 147.43 166.196 147.226 166.672C147.021 167.148 146.722 167.578 146.347 167.934C145.971 168.291 145.527 168.568 145.041 168.748C144.555 168.927 144.037 169.007 143.52 168.98V169Z" fill="#060B67"/>
<path d="M47.92 0C33.9583 12.5702 22.612 27.7699 14.5303 44.7295C6.44868 61.6891 1.79021 80.0757 0.821476 98.8374C-0.14726 117.599 2.59274 136.368 8.88472 154.069C15.1767 171.771 24.8972 188.059 37.49 202C37.8186 202.398 38.2245 202.725 38.6832 202.962C39.1418 203.199 39.6438 203.341 40.1586 203.378C40.6734 203.416 41.1905 203.348 41.6787 203.18C42.1668 203.013 42.6158 202.747 42.9987 202.401C43.3815 202.055 43.6901 201.635 43.906 201.166C44.1219 200.697 44.2405 200.189 44.2546 199.673C44.2687 199.157 44.1782 198.643 43.9883 198.163C43.7985 197.683 43.5133 197.247 43.15 196.88C31.2054 183.656 21.9911 168.203 16.0362 151.408C10.0813 134.613 7.50327 116.807 8.45014 99.0125C9.397 81.2181 13.8501 63.7861 21.5537 47.7177C29.2573 31.6494 40.0596 17.2613 53.34 5.38C55.42 3.52 57.57 1.72 59.75 0H47.92Z" fill="#C0E9FC"/>
<path d="M239.13 0H227.31C243.346 12.6742 256.307 28.8121 265.222 47.2053C274.137 65.5984 278.776 85.7701 278.79 106.21C278.84 107.188 279.264 108.109 279.974 108.784C280.684 109.459 281.626 109.835 282.605 109.835C283.584 109.835 284.526 109.459 285.236 108.784C285.946 108.109 286.37 107.188 286.42 106.21C286.464 87.4448 282.788 68.857 275.605 51.521C268.421 34.185 257.873 18.4447 244.57 5.21C242.79 3.41 240.977 1.67333 239.13 0Z" fill="#C0E9FC"/>
<path d="M195.9 0H175.05C192.732 5.23915 208.817 14.8322 221.83 27.9C222.545 28.6148 223.514 29.0163 224.525 29.0163C225.536 29.0163 226.505 28.6148 227.22 27.9C227.935 27.1852 228.336 26.2158 228.336 25.205C228.336 24.1942 227.935 23.2248 227.22 22.51C218.081 13.3451 207.5 5.74084 195.9 0Z" fill="#1226AA"/>
<path d="M220.05 186.26C207.933 197.838 193.346 206.514 177.388 211.636C161.43 216.757 144.518 218.19 127.927 215.825C111.335 213.461 95.4963 207.362 81.6041 197.988C67.712 188.613 56.1287 176.208 47.7273 161.706C39.3259 147.205 34.3255 130.986 33.1029 114.271C31.8803 97.5567 34.4674 80.7826 40.6692 65.213C46.8711 49.6434 56.5259 35.6846 68.9061 24.3884C81.2863 13.0922 96.0689 4.75324 112.14 0L91.23 0C75.9146 7.53765 62.4104 18.2983 51.6434 31.5442C40.8765 44.79 33.1015 60.2077 28.8516 76.7401C24.6017 93.2724 23.9774 110.528 27.0215 127.324C30.0657 144.121 36.7062 160.06 46.4878 174.049C56.2694 188.038 68.9607 199.747 83.6915 208.371C98.4222 216.996 114.844 222.333 131.831 224.016C148.817 225.7 165.967 223.689 182.104 218.123C198.241 212.557 212.983 203.568 225.32 191.77C226.051 191.071 226.474 190.111 226.496 189.1C226.519 188.089 226.139 187.111 225.44 186.38C224.741 185.649 223.781 185.226 222.77 185.204C221.759 185.181 220.781 185.561 220.05 186.26Z" fill="#1226AA"/>
<path d="M364.24 32.25H783.38V44.25H364.24C362.649 44.25 361.123 43.6179 359.997 42.4926C358.872 41.3674 358.24 39.8413 358.24 38.25C358.24 36.6587 358.872 35.1326 359.997 34.0074C361.123 32.8821 362.649 32.25 364.24 32.25Z" fill="#5577F2"/>
<path d="M533.57 53.55H783.38V65.55H533.57C531.979 65.55 530.453 64.9178 529.327 63.7926C528.202 62.6674 527.57 61.1413 527.57 59.55C527.57 57.9587 528.202 56.4326 529.327 55.3073C530.453 54.1821 531.979 53.55 533.57 53.55Z" fill="#C0E9FC"/>
<path d="M412.71 74.85H783.38V86.85H412.71C411.119 86.85 409.593 86.2178 408.467 85.0926C407.342 83.9674 406.71 82.4413 406.71 80.85C406.71 79.2587 407.342 77.7326 408.467 76.6073C409.593 75.4821 411.119 74.85 412.71 74.85Z" fill="#1226AA"/>
<path d="M623.09 117.9H783.38V129.9H623.09C621.499 129.9 619.973 129.268 618.847 128.143C617.722 127.017 617.09 125.491 617.09 123.9C617.09 122.309 617.722 120.783 618.847 119.657C619.973 118.532 621.499 117.9 623.09 117.9Z" fill="#5577F2"/>
<path d="M501.86 139.2H783.38V151.2H501.86C500.269 151.2 498.743 150.568 497.617 149.443C496.492 148.317 495.86 146.791 495.86 145.2C495.86 143.609 496.492 142.083 497.617 140.957C498.743 139.832 500.269 139.2 501.86 139.2Z" fill="#C0E9FC"/>
<path d="M582.1 160.5H783.38V172.5H582.1C580.509 172.5 578.983 171.868 577.857 170.743C576.732 169.617 576.1 168.091 576.1 166.5C576.1 164.909 576.732 163.383 577.857 162.257C578.983 161.132 580.509 160.5 582.1 160.5Z" fill="#1226AA"/>
</svg>
