<svg width="220" height="84" viewBox="0 0 220 84" fill="none" xmlns="http://www.w3.org/2000/svg">
<path d="M40.2492 0.0436809C32.5088 -0.318125 24.8399 1.66933 18.2496 5.74508C11.6592 9.82083 6.45543 15.7943 3.32159 22.8812C0.187754 29.9681 -0.729662 37.837 0.689811 45.4547C2.10928 53.0724 5.79928 60.0828 11.2753 65.5654C16.7513 71.0479 23.7573 74.7463 31.3733 76.1748C38.9893 77.6034 46.8593 76.6953 53.9499 73.57C61.0405 70.4446 67.0202 65.2479 71.1038 58.6624C75.1874 52.0769 77.184 44.4104 76.8315 36.6696C76.3821 27.1081 72.3849 18.0574 65.6205 11.2849C58.8561 4.51242 49.8101 0.504453 40.2492 0.0436809ZM71.82 40.581C70.0039 40.1008 67.0878 38.2412 62.4605 33.9281C64.4926 31.1105 66.9251 28.6046 69.6809 26.4894C71.1398 30.2965 71.8885 34.3388 71.8898 38.4158C71.8898 39.1579 71.8636 39.8738 71.82 40.581ZM54.4543 14.1702C54.8673 17.7999 54.723 21.4714 54.0265 25.0576C50.0976 20.2993 44.571 12.6685 42.5105 5.23854C44.1959 5.44255 45.8628 5.77826 47.4958 6.24259C49.3027 6.7408 50.9244 7.75687 52.1609 9.16555C53.3973 10.5742 54.1946 12.3139 54.4543 14.1702ZM37.3767 66.014C19.6706 46.5529 20.404 21.8272 21.6612 11.5248C25.7473 12.1446 31.2651 14.4321 38.4419 20.2556C43.2875 24.1755 47.8749 28.4042 52.1755 32.9153C48.0197 48.1245 42.7811 58.8372 37.3767 66.014ZM4.99402 38.4158C4.98522 32.2076 6.7185 26.1214 9.9968 20.8493C21.9231 37.3681 18.2475 55.4846 15.8552 63.0892C12.4287 59.9578 9.69299 56.1462 7.82285 51.8978C5.95271 47.6494 4.98925 43.0576 4.99402 38.4158ZM48.8927 70.231C47.7577 68.6245 48.0197 63.9099 52.4898 52.2542C54.1466 48.0806 56.1167 44.0383 58.3832 40.1619C62.0932 44.7613 65.076 49.9024 67.2275 55.406C63.1046 62.3978 56.5927 67.6631 48.8927 70.231Z" fill="#1226AA"/>
<path d="M97.0783 70.8946C96.8888 70.8799 96.701 70.9394 96.5544 71.0604C96.4491 71.2083 96.3926 71.3853 96.3926 71.5668C96.3926 71.7484 96.4491 71.9254 96.5544 72.0732C96.626 72.1349 96.7093 72.1813 96.7994 72.2098C96.8894 72.2384 96.9843 72.2483 97.0783 72.2391C97.2676 72.252 97.4548 72.1927 97.6021 72.0732C97.7206 71.9414 97.7859 71.7703 97.7855 71.593C97.8029 71.4967 97.7965 71.3976 97.767 71.3042C97.7374 71.2109 97.6856 71.1262 97.616 71.0574C97.5463 70.9886 97.4609 70.9379 97.3673 70.9095C97.2736 70.8811 97.1744 70.876 97.0783 70.8946Z" fill="#4E738A"/>
<path d="M97.6633 73.1209H96.4846V78.211H97.6633V73.1209Z" fill="#4E738A"/>
<path d="M101.697 73.0249C101.422 73.0272 101.149 73.0805 100.894 73.1821C100.542 73.3186 100.204 73.4851 99.8809 73.6797H99.8373L99.7761 73.1209H98.7634V78.211H99.9508V74.4393C100.156 74.3259 100.369 74.2267 100.588 74.1424C100.767 74.0772 100.956 74.0418 101.147 74.0377C101.226 74.0311 101.306 74.0425 101.38 74.0713C101.454 74.1 101.521 74.1453 101.575 74.2036C101.69 74.3723 101.743 74.5763 101.723 74.7798V78.211H102.902V74.3956C102.928 74.0292 102.82 73.6658 102.596 73.3741C102.48 73.2549 102.34 73.162 102.185 73.1017C102.029 73.0415 101.863 73.0153 101.697 73.0249Z" fill="#4E738A"/>
<path d="M105.643 71.593L104.7 71.7152L104.526 73.086H103.548V74.0988H104.421V76.8315C104.421 77.7919 104.936 78.2809 105.966 78.2809H106.403C106.538 78.2676 106.673 78.2442 106.804 78.211V77.3379C106.717 77.3706 106.626 77.3912 106.534 77.399C106.453 77.4068 106.371 77.4068 106.289 77.399C106.193 77.4076 106.096 77.3948 106.006 77.3616C105.915 77.3284 105.833 77.2756 105.765 77.207C105.634 77.0289 105.574 76.8073 105.6 76.5871V74.1337H106.804V73.1209H105.643V71.593Z" fill="#4E738A"/>
<path d="M109.572 73.0424C109.259 73.0202 108.945 73.07 108.655 73.1881C108.364 73.3062 108.105 73.4893 107.896 73.7234C107.473 74.3039 107.269 75.0151 107.32 75.7315C107.267 76.4197 107.476 77.1025 107.905 77.6435C108.122 77.8702 108.386 78.0464 108.679 78.1596C108.971 78.2727 109.285 78.3201 109.598 78.2983C109.891 78.2979 110.183 78.2716 110.471 78.2197C110.745 78.175 111.014 78.1049 111.275 78.0102L111.222 77.1371C110.957 77.2245 110.686 77.2917 110.41 77.3379C110.171 77.3778 109.928 77.3982 109.686 77.3991C109.527 77.4169 109.367 77.3995 109.216 77.3482C109.065 77.2969 108.927 77.2129 108.813 77.1022C108.594 76.8075 108.483 76.4471 108.498 76.0807H111.379C111.379 75.9759 111.379 75.8712 111.379 75.7577C111.379 75.6441 111.379 75.5219 111.379 75.356C111.449 73.8019 110.829 73.0424 109.572 73.0424ZM108.516 75.3124C108.515 74.9395 108.617 74.5737 108.813 74.256C108.898 74.1471 109.009 74.0602 109.135 74.0026C109.261 73.9449 109.399 73.918 109.537 73.9242C109.662 73.9144 109.786 73.9394 109.897 73.9964C110.008 74.0535 110.101 74.1403 110.166 74.2472C110.331 74.5767 110.407 74.9443 110.384 75.3124H108.516Z" fill="#4E738A"/>
<path d="M114.505 73.1908C114.365 73.2507 114.228 73.3177 114.095 73.3916C113.955 73.4614 113.842 73.54 113.728 73.6099L113.449 73.8194H113.396L113.326 73.1209H112.322V78.211H113.501V74.6226C113.668 74.4953 113.853 74.3952 114.051 74.3258C114.268 74.2324 114.498 74.1707 114.732 74.1424H115.186V73.0424H114.898C114.764 73.0821 114.632 73.1317 114.505 73.1908Z" fill="#4E738A"/>
<path d="M118.74 73.0249C118.464 73.0272 118.192 73.0805 117.936 73.182C117.587 73.3171 117.251 73.4837 116.932 73.6797H116.88L116.819 73.1209H115.806V78.211H116.993V74.4393C117.2 74.3275 117.412 74.2283 117.631 74.1424C117.813 74.0763 118.005 74.0409 118.198 74.0377C118.277 74.0329 118.356 74.0452 118.43 74.0739C118.504 74.1025 118.571 74.1467 118.626 74.2035C118.738 74.3734 118.788 74.5773 118.766 74.7798V78.211H119.944V74.3956C119.975 74.0287 119.866 73.6638 119.639 73.3741C119.523 73.2544 119.383 73.1612 119.227 73.1009C119.072 73.0406 118.906 73.0147 118.74 73.0249Z" fill="#4E738A"/>
<path d="M123.105 73.0423C122.791 73.0201 122.476 73.0699 122.184 73.1879C121.892 73.3059 121.63 73.4891 121.42 73.7233C121 74.305 120.799 75.0161 120.852 75.7314C120.802 76.4181 121.007 77.0993 121.429 77.6435C121.646 77.8702 121.91 78.0464 122.203 78.1596C122.495 78.2727 122.809 78.3201 123.122 78.2983C123.415 78.297 123.707 78.2707 123.996 78.2197C124.266 78.1739 124.532 78.1038 124.79 78.0102L124.738 77.1371C124.476 77.2255 124.207 77.2926 123.934 77.3379C123.695 77.3774 123.453 77.3979 123.21 77.399C123.051 77.4151 122.892 77.3969 122.741 77.3457C122.59 77.2944 122.452 77.2114 122.337 77.1022C122.121 76.8064 122.014 76.446 122.031 76.0807H124.904C124.904 75.9759 124.904 75.8711 124.947 75.7576C124.991 75.6441 124.947 75.5219 124.947 75.356C124.965 73.8019 124.345 73.0423 123.105 73.0423ZM122.049 75.3123C122.041 74.9398 122.141 74.573 122.337 74.2559C122.422 74.1471 122.533 74.0602 122.659 74.0025C122.785 73.9448 122.923 73.918 123.061 73.9241C123.187 73.9147 123.313 73.9397 123.425 73.9967C123.537 74.0536 123.632 74.1403 123.699 74.2472C123.856 74.5792 123.928 74.9454 123.908 75.3123H122.049Z" fill="#4E738A"/>
<path d="M127.47 71.593L126.527 71.7152L126.362 73.086H125.427V74.0988H126.3V76.8315C126.3 77.7919 126.816 78.2808 127.846 78.2808C127.991 78.2898 128.137 78.2898 128.282 78.2808C128.421 78.2675 128.558 78.2442 128.693 78.211V77.3379C128.603 77.3707 128.509 77.3912 128.413 77.399C128.332 77.4068 128.25 77.4068 128.169 77.399C128.074 77.4069 127.979 77.3937 127.89 77.3605C127.801 77.3273 127.72 77.2749 127.654 77.207C127.519 77.0301 127.456 76.8084 127.479 76.5871V74.1337H128.693V73.1209H127.47V71.593Z" fill="#4E738A"/>
<path d="M134.141 73.0947H133.748H133.399C133.066 73.0731 132.733 73.1226 132.421 73.2401C132.11 73.3575 131.827 73.5401 131.591 73.7757C131.133 74.3569 130.908 75.089 130.963 75.8275C130.914 76.4925 131.069 77.1565 131.408 77.7308C131.577 77.9266 131.786 78.0837 132.021 78.1913C132.256 78.299 132.511 78.3548 132.77 78.3548C133.029 78.3548 133.284 78.299 133.519 78.1913C133.754 78.0837 133.963 77.9266 134.132 77.7308L134.219 78.2721H135.328V70.5977H134.149L134.141 73.0947ZM134.141 76.1243C134.164 76.4783 134.065 76.8295 133.861 77.1197C133.773 77.2189 133.664 77.2976 133.541 77.3503C133.419 77.4031 133.287 77.4287 133.154 77.4252C133.003 77.4346 132.852 77.401 132.72 77.3284C132.587 77.2558 132.477 77.1471 132.403 77.0149C132.224 76.5874 132.146 76.1242 132.176 75.6616C132.139 75.1791 132.235 74.6956 132.456 74.2647C132.559 74.1334 132.692 74.0291 132.844 73.9607C132.996 73.8922 133.162 73.8617 133.329 73.8718C133.463 73.8628 133.597 73.8628 133.73 73.8718L134.106 73.9416L134.141 76.1243Z" fill="#4E738A"/>
<path d="M138.454 73.0423C138.141 73.0208 137.827 73.071 137.537 73.189C137.246 73.307 136.987 73.4898 136.778 73.7233C136.355 74.3039 136.151 75.0151 136.201 75.7314C136.153 76.4192 136.361 77.1005 136.786 77.6435C137.003 77.8702 137.267 78.0464 137.56 78.1596C137.853 78.2727 138.167 78.3201 138.48 78.2983C138.773 78.297 139.065 78.2707 139.353 78.2197C139.624 78.1739 139.89 78.1038 140.148 78.0102L140.095 77.1371C139.833 77.2235 139.564 77.2906 139.292 77.3379C139.05 77.3778 138.804 77.3983 138.559 77.399C138.4 77.4169 138.24 77.3995 138.089 77.3482C137.938 77.2969 137.8 77.2129 137.686 77.1022C137.466 76.8084 137.358 76.4466 137.38 76.0807H140.252C140.252 75.9759 140.252 75.8711 140.296 75.7576C140.34 75.6441 140.296 75.5219 140.296 75.356C140.331 73.8019 139.694 73.0423 138.454 73.0423ZM137.406 75.3124C137.399 74.9398 137.499 74.5731 137.694 74.2559C137.78 74.1471 137.891 74.0602 138.017 74.0025C138.143 73.9448 138.28 73.918 138.419 73.9241C138.544 73.9156 138.67 73.9411 138.782 73.998C138.894 74.0549 138.989 74.1409 139.056 74.2472C139.214 74.5792 139.286 74.9454 139.266 75.3124H137.406Z" fill="#4E738A"/>
<path d="M144.242 70.5977H143.055V78.211H144.242V70.5977Z" fill="#4E738A"/>
<path d="M147.08 73.051C146.815 73.0346 146.55 73.0346 146.285 73.051L145.412 73.182L145.5 74.0551L145.84 74.0027L146.224 73.9503H146.591H146.897C147.058 73.9464 147.22 73.964 147.377 74.0027C147.493 74.0205 147.6 74.0757 147.682 74.1599C147.765 74.2464 147.82 74.3559 147.839 74.4742C147.856 74.6367 147.856 74.8005 147.839 74.9631V75.1988L146.853 75.2599C146.354 75.2683 145.869 75.4298 145.465 75.7227C145.309 75.8641 145.187 76.0389 145.109 76.2339C145.03 76.4289 144.997 76.6392 145.011 76.849C144.992 77.2285 145.12 77.6006 145.369 77.8879C145.498 78.0182 145.654 78.1198 145.825 78.186C145.997 78.2521 146.18 78.2815 146.364 78.2721C146.643 78.2697 146.917 78.204 147.167 78.08C147.425 77.9589 147.66 77.7967 147.866 77.5998H147.944L148.049 78.2197H149.027V74.7274C149.047 74.4978 149.014 74.2667 148.93 74.0518C148.847 73.8369 148.716 73.6439 148.547 73.4876C148.12 73.1836 147.604 73.03 147.08 73.051ZM147.883 76.9625C147.743 77.0498 147.578 77.1458 147.385 77.2418C147.228 77.3293 147.051 77.3773 146.87 77.3815C146.451 77.3815 146.242 77.1633 146.242 76.7267C146.236 76.626 146.252 76.5251 146.29 76.4315C146.328 76.3379 146.386 76.2538 146.46 76.1854C146.677 76.0463 146.927 75.9679 147.185 75.9584L147.883 75.8973V76.9625Z" fill="#4E738A"/>
<path d="M152.973 75.618C152.824 75.5018 152.656 75.4131 152.476 75.356C152.287 75.2922 152.095 75.2426 151.899 75.2076C151.693 75.1676 151.494 75.1001 151.306 75.0068C151.228 74.9563 151.167 74.8857 151.126 74.8027C151.086 74.7196 151.07 74.6271 151.079 74.5353C151.076 74.4455 151.095 74.3564 151.135 74.2757C151.174 74.1951 151.233 74.1253 151.306 74.0726C151.494 73.9557 151.713 73.9007 151.934 73.9154C152.109 73.9032 152.284 73.9032 152.458 73.9154C152.65 73.9154 152.886 73.994 153.191 74.0639V73.1908C152.895 73.1297 152.624 73.0773 152.397 73.0511C152.18 73.0241 151.961 73.0095 151.742 73.0074C151.267 72.9794 150.799 73.1253 150.424 73.4178C150.268 73.5647 150.145 73.7439 150.065 73.943C149.985 74.142 149.95 74.3561 149.961 74.5703C149.946 74.8404 149.997 75.1101 150.109 75.356C150.197 75.5329 150.329 75.6835 150.494 75.7926C150.644 75.8979 150.813 75.9748 150.991 76.0196L151.515 76.1244C151.724 76.1477 151.923 76.226 152.091 76.3513C152.153 76.4072 152.202 76.4762 152.233 76.5532C152.265 76.6303 152.279 76.7134 152.275 76.7966C152.275 77.2244 152.004 77.434 151.454 77.434C151.199 77.4308 150.945 77.4074 150.694 77.3641C150.433 77.3194 150.173 77.2611 149.917 77.1895V78.0626C150.223 78.1412 150.502 78.1936 150.791 78.2372C151.033 78.2778 151.278 78.2983 151.524 78.2983C152.03 78.3308 152.531 78.1822 152.938 77.8792C153.107 77.7384 153.241 77.5601 153.329 77.3585C153.417 77.1569 153.456 76.9376 153.445 76.718C153.452 76.485 153.41 76.253 153.322 76.037C153.245 75.8692 153.124 75.7247 152.973 75.618Z" fill="#4E738A"/>
<path d="M156.466 73.6797C156.032 74.2483 155.823 74.9573 155.881 75.6703C155.821 76.3836 156.029 77.0935 156.466 77.661C156.696 77.883 156.971 78.0545 157.271 78.1642C157.572 78.274 157.892 78.3197 158.212 78.2983C158.404 78.3108 158.596 78.3108 158.788 78.2983C158.959 78.2762 159.128 78.2412 159.294 78.1935V77.2157C159.131 77.256 158.964 77.2852 158.797 77.303C158.64 77.3117 158.482 77.3117 158.325 77.303C158.142 77.322 157.956 77.2952 157.786 77.2251C157.615 77.155 157.465 77.0438 157.347 76.9014C157.117 76.5215 157.013 76.0782 157.051 75.6354C157.012 75.1953 157.116 74.7544 157.347 74.3782C157.47 74.2405 157.623 74.1339 157.794 74.0671C157.966 74.0003 158.151 73.9753 158.334 73.994H158.788C158.959 74.0044 159.128 74.0307 159.294 74.0726V73.1733C158.94 73.0862 158.577 73.0423 158.212 73.0423C157.892 73.021 157.572 73.0667 157.271 73.1764C156.971 73.2862 156.696 73.4576 156.466 73.6797Z" fill="#4E738A"/>
<path d="M162.158 73.0249C161.844 73.0041 161.528 73.0536 161.235 73.1699C160.942 73.2862 160.679 73.4663 160.464 73.6972C160.094 74.287 159.897 74.9694 159.897 75.666C159.897 76.3625 160.094 77.0449 160.464 77.6348C160.679 77.8656 160.942 78.0457 161.235 78.162C161.528 78.2783 161.844 78.3279 162.158 78.3071C162.471 78.3297 162.786 78.281 163.078 78.1645C163.37 78.0481 163.631 77.867 163.843 77.6348C164.22 77.0471 164.42 76.3639 164.42 75.666C164.42 74.9681 164.22 74.2848 163.843 73.6972C163.63 73.4665 163.368 73.2864 163.077 73.1701C162.785 73.0538 162.471 73.0042 162.158 73.0249ZM163.171 76.5172C163.148 76.7029 163.085 76.8815 162.987 77.0411C162.91 77.1699 162.794 77.2708 162.656 77.3292C162.498 77.3922 162.328 77.4219 162.158 77.4165C161.988 77.4226 161.818 77.3929 161.66 77.3292C161.523 77.2652 161.408 77.1619 161.329 77.0324C161.239 76.8693 161.177 76.6922 161.145 76.5085C161.107 76.2454 161.09 75.9798 161.093 75.714C161.089 75.4424 161.107 75.1709 161.145 74.902C161.178 74.7215 161.24 74.5475 161.329 74.3869C161.405 74.2577 161.522 74.1566 161.66 74.0988C161.818 74.0319 161.987 73.9991 162.158 74.0027C162.326 73.999 162.493 74.0318 162.647 74.0988C162.787 74.1544 162.904 74.256 162.979 74.3869C163.075 74.5451 163.14 74.7198 163.171 74.902C163.213 75.1706 163.233 75.4421 163.232 75.714C163.234 75.9685 163.214 76.2227 163.171 76.4736V76.5172Z" fill="#4E738A"/>
<path d="M168.139 75.618C167.993 75.5019 167.827 75.4131 167.65 75.356C167.458 75.2933 167.263 75.2437 167.065 75.2076C166.859 75.1661 166.66 75.0987 166.471 75.0068C166.394 74.9563 166.332 74.8857 166.292 74.8027C166.252 74.7196 166.235 74.6271 166.244 74.5353C166.241 74.4455 166.26 74.3564 166.3 74.2757C166.34 74.1951 166.398 74.1253 166.471 74.0726C166.662 73.956 166.885 73.9012 167.108 73.9154C167.28 73.9036 167.452 73.9036 167.624 73.9154C167.816 73.9154 168.06 73.994 168.357 74.0639V73.1908C168.06 73.1297 167.789 73.0773 167.562 73.0511C167.345 73.0241 167.127 73.0095 166.908 73.0074C166.433 72.9794 165.964 73.1253 165.589 73.4178C165.433 73.5647 165.311 73.7439 165.231 73.943C165.151 74.142 165.115 74.3561 165.127 74.5703C165.115 74.8401 165.165 75.1091 165.275 75.356C165.362 75.5329 165.495 75.6835 165.659 75.7926C165.813 75.898 165.984 75.9749 166.166 76.0196L166.681 76.1244C166.889 76.1477 167.088 76.226 167.257 76.3513C167.322 76.4051 167.373 76.4734 167.407 76.5509C167.44 76.6283 167.454 76.7125 167.449 76.7966C167.449 77.2244 167.17 77.434 166.628 77.434C166.374 77.4316 166.12 77.4082 165.869 77.3641C165.606 77.3213 165.347 77.2629 165.092 77.1895V78.0626C165.388 78.1412 165.668 78.1936 165.965 78.2372C166.207 78.2778 166.452 78.2983 166.698 78.2983C167.204 78.3308 167.706 78.1822 168.113 77.8792C168.281 77.7384 168.415 77.5601 168.503 77.3585C168.591 77.1569 168.631 76.9376 168.619 76.718C168.626 76.485 168.585 76.253 168.497 76.037C168.417 75.8681 168.293 75.7235 168.139 75.618Z" fill="#4E738A"/>
<path d="M171.125 73.0511C170.857 73.0344 170.589 73.0344 170.321 73.0511L169.448 73.182L169.527 74.0551L169.876 74.0027L170.26 73.9504H170.618H170.924C171.088 73.9466 171.253 73.9642 171.413 74.0027C171.528 74.0223 171.635 74.0772 171.718 74.1599C171.798 74.2489 171.852 74.3574 171.876 74.4742C171.906 74.6353 171.921 74.7991 171.919 74.9631V75.1989L170.924 75.26C170.425 75.2683 169.94 75.4299 169.536 75.7227C169.266 76.0141 169.108 76.3923 169.092 76.7892C169.076 77.1862 169.203 77.5758 169.448 77.888C169.576 78.018 169.73 78.1195 169.9 78.1857C170.071 78.2519 170.253 78.2814 170.435 78.2721C170.716 78.2687 170.994 78.2031 171.247 78.08C171.502 77.9547 171.737 77.793 171.945 77.5998H172.015L172.12 78.2197H173.107V74.7274C173.124 74.498 173.091 74.2675 173.007 74.0529C172.924 73.8383 172.794 73.6451 172.626 73.4876C172.189 73.1774 171.66 73.0236 171.125 73.0511ZM171.928 76.9625L171.43 77.2419C171.27 77.3304 171.09 77.3784 170.906 77.3816C170.487 77.3816 170.286 77.1633 170.286 76.7268C170.279 76.6258 170.294 76.5244 170.332 76.4304C170.37 76.3365 170.429 76.2527 170.505 76.1855C170.721 76.0451 170.972 75.9666 171.229 75.9585L171.928 75.8973V76.9625Z" fill="#4E738A"/>
<path d="M177.376 76.0545C177.306 75.8823 177.191 75.7317 177.044 75.6179C176.898 75.5018 176.733 75.4131 176.555 75.356C176.364 75.2911 176.169 75.2415 175.97 75.2076C175.765 75.1661 175.565 75.0986 175.377 75.0068C175.3 74.9559 175.24 74.885 175.201 74.8018C175.163 74.7186 175.148 74.6264 175.158 74.5353C175.154 74.4461 175.171 74.3572 175.209 74.2765C175.247 74.1958 175.305 74.1257 175.377 74.0725C175.568 73.956 175.79 73.9011 176.014 73.9154C176.188 73.9031 176.363 73.9031 176.538 73.9154C176.721 73.9154 176.966 73.994 177.262 74.0638V73.1907C176.966 73.1296 176.704 73.0772 176.468 73.051C176.251 73.024 176.032 73.0095 175.813 73.0074C175.341 72.9774 174.874 73.1236 174.504 73.4177C174.344 73.5627 174.219 73.7414 174.138 73.9408C174.056 74.1401 174.02 74.3552 174.032 74.5702C174.02 74.8401 174.071 75.1091 174.18 75.356C174.27 75.5311 174.402 75.6811 174.565 75.7925C174.718 75.898 174.89 75.9749 175.071 76.0195L175.586 76.1243C175.798 76.1462 176 76.2246 176.171 76.3513C176.239 76.4099 176.293 76.4842 176.326 76.5678C176.359 76.6515 176.372 76.7419 176.363 76.8315C176.363 77.2593 176.084 77.4689 175.542 77.4689C175.288 77.4661 175.034 77.4427 174.783 77.399C174.521 77.3552 174.261 77.2969 174.006 77.2244V78.0975C174.303 78.1761 174.591 78.2284 174.879 78.2721C175.121 78.3127 175.367 78.3331 175.612 78.3332C176.121 78.3647 176.625 78.2164 177.035 77.9141C177.202 77.7715 177.333 77.5927 177.419 77.3914C177.506 77.1901 177.544 76.9717 177.533 76.7529C177.536 76.511 177.483 76.2717 177.376 76.0545Z" fill="#4E738A"/>
<path d="M198.714 68.1007C197.924 67.2913 196.981 66.648 195.939 66.2088C194.897 65.7696 193.777 65.5434 192.646 65.5434C191.515 65.5434 190.396 65.7696 189.354 66.2088C188.312 66.648 187.368 67.2913 186.578 68.1007C185.763 68.8935 185.119 69.8447 184.685 70.8957C184.251 71.9467 184.037 73.0754 184.055 74.2123C184.037 75.3414 184.252 76.462 184.686 77.5045C185.12 78.547 185.764 79.4888 186.578 80.2715C187.374 81.0818 188.326 81.7217 189.377 82.1525C190.427 82.5833 191.554 82.7958 192.69 82.7772C194.394 82.7863 196.063 82.2859 197.481 81.3403C198.9 80.3948 200.003 79.0471 200.65 77.4701C201.298 75.8932 201.459 74.1588 201.114 72.4895C200.769 70.8201 199.933 69.2919 198.714 68.1007Z" fill="#1226AA"/>
<path d="M136.385 25.2758H120.285V66.8259H136.385V25.2758Z" fill="#1226AA"/>
<path d="M163.372 25.3195H140.881V66.8259H156.981V30.9596H161.442V66.8259H177.507V40.4675C177.507 34.3908 176.552 30.3397 174.643 28.3141C172.734 26.2886 168.977 25.2904 163.372 25.3195Z" fill="#1226AA"/>
<path d="M128.343 6.18147C127.204 6.16283 126.073 6.37965 125.022 6.81833C123.97 7.25702 123.02 7.90813 122.232 8.73087C121.417 9.5237 120.773 10.4749 120.339 11.5259C119.905 12.5769 119.69 13.7056 119.709 14.8425C119.693 15.9686 119.909 17.086 120.343 18.1253C120.777 19.1645 121.42 20.1036 122.232 20.8842C123.027 21.6945 123.979 22.3345 125.03 22.7652C126.081 23.196 127.208 23.4086 128.343 23.39C129.466 23.3982 130.577 23.178 131.612 22.7427C132.646 22.3074 133.581 21.6662 134.359 20.858C135.178 20.0856 135.829 19.1529 136.272 18.1181C136.715 17.0832 136.941 15.9682 136.935 14.8425C136.95 13.7044 136.733 12.5751 136.296 11.5241C135.859 10.4731 135.212 9.52252 134.394 8.73087C133.616 7.91194 132.676 7.26274 131.635 6.82403C130.594 6.38531 129.473 6.16655 128.343 6.18147Z" fill="#1226AA"/>
<path d="M218.874 25.3195H199.404C193.409 25.5291 188.825 27.2985 185.653 30.6279C182.481 33.9572 180.894 38.6603 180.894 44.7369C180.894 51.2094 182.262 56.1161 184.998 59.4571C187.734 62.7982 191.747 64.4657 197.038 64.4599C197.666 64.4599 198.138 64.4599 198.452 64.4599C198.771 64.45 199.089 64.4179 199.404 64.3639V30.9596H204.302V68.0483C204.302 68.5809 204.302 69.323 204.302 70.2834C204.302 71.2438 204.302 71.9423 204.302 72.3963C204.391 74.5271 204.096 76.6567 203.429 78.6825C202.808 80.2386 201.794 81.6072 200.487 82.655C201.33 82.8997 202.187 83.0951 203.053 83.24C203.68 83.3397 204.313 83.3923 204.948 83.3971C210.186 83.3971 214.008 81.9187 216.412 78.9619C218.815 76.005 220.017 71.1856 220.017 64.5036V25.3195H218.874Z" fill="#1226AA"/>
<path d="M112.436 6.18146L96.3711 17.9856V25.2758H90.7659V30.9596H96.3711V66.826H112.436V30.9596H118.032V25.2758H112.436V6.18146Z" fill="#1226AA"/>
</svg>
