<svg width="784" height="522" viewBox="0 0 784 522" fill="none" xmlns="http://www.w3.org/2000/svg">
<path d="M784 0H0V522H784V0Z" fill="#6CA8FF"/>
<path opacity="0.22" d="M622.89 246.06C561 266.92 499.5 319.12 434.24 373.92C348.07 446.27 294.67 405 232.83 357.29C202.35 333.75 170.83 309.41 133.71 298.37C75.12 280.94 33.71 291.37 9.26 303.19C6.14 304.7 3.26 306.19 0.619995 307.69V325.75C25.53 309 68.16 293 129.71 311.83C164.23 322.4 194.79 345.65 224.25 368.4C263.11 398.4 302.81 429.07 350.98 426.86C378.5 425.6 408.8 413.62 443.27 384.67C564.47 282.89 663.52 201.42 784 289.22V271.34C729.86 233.4 674.9 228.52 622.89 246.06Z" fill="url(#paint0_linear)"/>
<path d="M560.49 0C556.73 3.18 553.063 6.54 549.49 10.08C517.526 41.967 498.956 84.8635 497.58 129.992C496.203 175.12 512.124 219.069 542.085 252.845C572.046 286.621 613.782 307.67 658.752 311.686C703.723 315.703 748.528 302.382 784 274.45V0H560.49ZM743.27 203.83C729.704 217.396 712.42 226.634 693.604 230.376C674.788 234.119 655.285 232.198 637.561 224.856C619.836 217.514 604.687 205.082 594.029 189.13C583.37 173.179 577.681 154.425 577.681 135.24C577.681 116.055 583.37 97.3014 594.029 81.3499C604.687 65.3983 619.836 52.9656 637.561 45.6239C655.285 38.2821 674.788 36.3611 693.604 40.1037C712.42 43.8463 729.704 53.0845 743.27 66.65C752.353 75.6146 759.565 86.2941 764.488 98.0686C769.41 109.843 771.945 122.478 771.945 135.24C771.945 148.002 769.41 160.637 764.488 172.411C759.565 184.186 752.353 194.865 743.27 203.83Z" fill="#5577F2"/>
<path opacity="0.43" d="M562.28 344.75C486.28 309.86 407.66 273.75 303.28 287.75C235.85 296.75 194.84 325.23 158.65 350.34C127.51 371.94 100.65 390.6 63.44 391.95C34.12 393 13.84 388.9 0 383.46V398.57C14.41 403.93 35.22 407.96 64 405.97C105.22 403.12 135.13 383.78 166.71 361.86C201.59 337.66 241.12 310.22 305.2 301.65C405.54 288.23 482.27 323.45 556.47 357.51C616.57 385.1 674.22 411.57 739.53 409.51C754.493 409.219 769.39 407.436 784 404.19V389.14C702.67 408.67 634 377.66 562.28 344.75Z" fill="url(#paint1_linear)"/>
<path d="M318.9 437.33H376.51L415.47 476.29H505.82L535.09 505.56V522H541.25V503L508.37 470.13H418.02L379.06 431.17H321.46L286.2 395.91H213.69V402.07H283.65L318.9 437.33Z" fill="url(#paint2_linear)"/>
<path d="M549.47 10.2L605.33 66.06C605.33 66.06 536.74 141.72 615.93 212.43L577.79 283.56C577.79 283.56 498.17 237.13 497.65 132.86C497.65 132.86 495 63.24 549.47 10.2Z" fill="#1226AA"/>
<path d="M426.06 45.28C426.057 44.2478 425.851 43.2262 425.454 42.2736C425.057 41.321 424.475 40.456 423.744 39.728C423.012 38.9999 422.144 38.4232 421.189 38.0306C420.235 37.638 419.212 37.4373 418.18 37.44L0 38.57V56.24L418.23 55.11C420.316 55.102 422.313 54.2666 423.783 52.7872C425.253 51.3079 426.075 49.3055 426.07 47.22L426.06 45.28Z" fill="#5577F2"/>
<path d="M426.21 101.78C426.207 100.748 426.001 99.7263 425.604 98.7737C425.207 97.821 424.625 96.956 423.894 96.228C423.162 95.5 422.294 94.9232 421.339 94.5307C420.385 94.1381 419.362 93.9374 418.33 93.94L0 95.08V112.74L418.38 111.61C419.412 111.607 420.434 111.401 421.386 111.004C422.339 110.607 423.204 110.025 423.932 109.294C424.66 108.562 425.237 107.694 425.629 106.739C426.022 105.785 426.223 104.762 426.22 103.73L426.21 101.78Z" fill="#5577F2"/>
<path d="M426.37 158.29C426.367 157.258 426.161 156.236 425.764 155.284C425.367 154.331 424.785 153.466 424.054 152.738C423.322 152.01 422.454 151.433 421.499 151.041C420.545 150.648 419.522 150.447 418.49 150.45L0 151.58V169.25L418.53 168.12C420.616 168.112 422.613 167.277 424.083 165.797C425.553 164.318 426.375 162.316 426.37 160.23V158.29Z" fill="#5577F2"/>
<path d="M426.52 214.79C426.517 213.758 426.311 212.736 425.914 211.784C425.517 210.831 424.935 209.966 424.204 209.238C423.472 208.51 422.604 207.933 421.649 207.541C420.695 207.148 419.672 206.947 418.64 206.95L0 208.09V225.75L418.69 224.62C419.722 224.617 420.744 224.411 421.696 224.014C422.649 223.617 423.514 223.035 424.242 222.304C424.97 221.572 425.547 220.704 425.939 219.749C426.332 218.795 426.533 217.772 426.53 216.74L426.52 214.79Z" fill="#5577F2"/>
<path d="M227.51 45.82C227.506 44.7891 227.299 43.7691 226.901 42.8182C226.503 41.8673 225.921 41.0041 225.19 40.278C224.458 39.5518 223.59 38.9769 222.636 38.586C221.682 38.1952 220.661 37.996 219.63 38L0 38.57V56.24L219.68 55.64C220.712 55.6374 221.734 55.4315 222.686 55.034C223.639 54.6366 224.504 54.0554 225.232 53.3237C225.96 52.592 226.537 51.724 226.929 50.7694C227.322 49.8148 227.523 48.7922 227.52 47.76L227.51 45.82Z" fill="#1226AA"/>
<path d="M375.83 101.92C375.825 99.8441 374.998 97.8545 373.531 96.3856C372.064 94.9168 370.076 94.0879 368 94.08L0.619995 95.07V112.74L368 111.74C369.032 111.737 370.054 111.531 371.006 111.134C371.959 110.737 372.824 110.155 373.552 109.424C374.28 108.692 374.857 107.824 375.249 106.869C375.642 105.915 375.843 104.892 375.84 103.86L375.83 101.92Z" fill="#1226AA"/>
<path d="M376 158.42C375.997 157.388 375.791 156.367 375.394 155.415C374.996 154.463 374.415 153.599 373.683 152.872C372.951 152.144 372.083 151.569 371.129 151.177C370.174 150.786 369.152 150.586 368.12 150.59L0 151.58V169.25L368.15 168.25C369.182 168.247 370.204 168.041 371.156 167.644C372.109 167.247 372.974 166.665 373.702 165.934C374.43 165.202 375.007 164.334 375.399 163.379C375.792 162.425 375.993 161.402 375.99 160.37L376 158.42Z" fill="#1226AA"/>
<path d="M458.38 385.47L545.01 392.4L547.24 420.28L577.03 450.07L582.79 522H624.22L588.74 519.16L582.99 447.32L553.2 417.53L550.74 386.68L461.13 379.51L437.39 355.77L252.82 341.01L252.32 347.15L434.63 361.73L458.38 385.47Z" fill="url(#paint3_linear)"/>
<path d="M255.83 215.25C255.827 214.218 255.621 213.197 255.224 212.245C254.826 211.293 254.245 210.429 253.513 209.702C252.781 208.974 251.913 208.398 250.959 208.007C250.004 207.616 248.982 207.416 247.95 207.42L0 208.09V225.75L248 225.08C249.032 225.077 250.053 224.871 251.005 224.474C251.957 224.076 252.821 223.495 253.548 222.763C254.276 222.031 254.852 221.163 255.243 220.209C255.634 219.254 255.834 218.232 255.83 217.2V215.25Z" fill="#1226AA"/>
<path d="M449.58 522V266.88C449.58 263.756 448.339 260.759 446.13 258.55C443.921 256.341 440.924 255.1 437.8 255.1H410.44C407.316 255.1 404.319 256.341 402.11 258.55C399.901 260.759 398.66 263.756 398.66 266.88V522H449.58Z" fill="#5577F2"/>
<path d="M523.94 522V334.52C523.94 331.396 522.699 328.399 520.49 326.19C518.281 323.981 515.284 322.74 512.16 322.74H484.81C483.261 322.736 481.725 323.038 480.293 323.628C478.86 324.218 477.558 325.085 476.461 326.18C475.364 327.274 474.493 328.574 473.9 330.005C473.306 331.436 473 332.971 473 334.52V522H523.94Z" fill="#1226AA"/>
<path d="M597.64 522V397.5C597.641 395.953 597.338 394.42 596.746 392.99C596.154 391.561 595.287 390.261 594.193 389.167C593.098 388.073 591.799 387.206 590.37 386.614C588.94 386.022 587.407 385.719 585.86 385.72H558.5C555.376 385.72 552.379 386.961 550.17 389.17C547.961 391.379 546.72 394.376 546.72 397.5V522H597.64Z" fill="#060B67"/>
<path d="M676.84 522V379.42C676.841 377.873 676.538 376.34 675.946 374.91C675.354 373.481 674.487 372.181 673.393 371.087C672.299 369.993 670.999 369.126 669.57 368.534C668.14 367.942 666.607 367.639 665.06 367.64H637.7C634.576 367.64 631.579 368.881 629.37 371.09C627.161 373.299 625.92 376.296 625.92 379.42V522H676.84Z" fill="#5577F2"/>
<path d="M754.6 522V461.78C754.601 460.233 754.298 458.7 753.706 457.27C753.114 455.841 752.247 454.541 751.153 453.447C750.059 452.353 748.759 451.486 747.33 450.894C745.9 450.302 744.367 449.999 742.82 450H715.46C712.336 450 709.339 451.241 707.13 453.45C704.921 455.659 703.68 458.656 703.68 461.78V522H754.6Z" fill="#060B67"/>
<path d="M182 337.46C195.601 348.506 206.661 362.353 214.427 378.06C222.193 393.766 226.482 410.961 227.002 428.475C227.522 445.989 224.261 463.408 217.441 479.548C210.621 495.687 200.402 510.167 187.48 522H213C213.4 521.52 213.81 521 214.21 520.55C262.97 460.43 253.74 371.85 193.62 323.08C178.637 310.912 161.299 301.974 142.696 296.826C124.093 291.679 104.627 290.434 85.52 293.17L87.93 311.53C104.551 309.119 121.49 310.178 137.681 314.641C153.872 319.104 168.962 326.874 182 337.46Z" fill="#1226AA"/>
<path d="M157.5 522H188.19C208.674 503.35 222.124 478.225 226.286 450.837C230.448 423.449 225.069 395.463 211.05 371.57L195.45 380.71C202.345 392.451 206.835 405.447 208.658 418.94C210.481 432.433 209.601 446.154 206.069 459.304C202.537 472.454 196.424 484.769 188.085 495.533C179.747 506.297 169.35 515.294 157.5 522Z" fill="#5577F2"/>
<defs>
<linearGradient id="paint0_linear" x1="0.619995" y1="331.65" x2="784" y2="331.65" gradientUnits="userSpaceOnUse">
<stop stop-color="#4168E5"/>
<stop offset="1" stop-color="#57A3FF"/>
</linearGradient>
<linearGradient id="paint1_linear" x1="0" y1="347.15" x2="784" y2="347.15" gradientUnits="userSpaceOnUse">
<stop stop-color="#3680EA"/>
<stop offset="0.49" stop-color="#2773E2"/>
<stop offset="1" stop-color="#5EA4F7"/>
</linearGradient>
<linearGradient id="paint2_linear" x1="494.09" y1="569.16" x2="267.26" y2="342.34" gradientUnits="userSpaceOnUse">
<stop stop-color="#92B9FF"/>
<stop offset="1" stop-color="#92C6FF"/>
</linearGradient>
<linearGradient id="paint3_linear" x1="590.42" y1="555.8" x2="314.22" y2="279.6" gradientUnits="userSpaceOnUse">
<stop stop-color="#92B6FF"/>
<stop offset="1" stop-color="#C0E9FC"/>
</linearGradient>
</defs>
</svg>
