<svg width="80" height="31" viewBox="0 0 80 31" fill="none" xmlns="http://www.w3.org/2000/svg">
<g clip-path="url(#clip0)">
<path d="M14.636 0.0158507C11.8213 -0.115715 9.03265 0.606996 6.63616 2.08909C4.23966 3.57118 2.34739 5.74335 1.20781 8.3204C0.0682299 10.8974 -0.265376 13.7589 0.250796 16.529C0.766967 19.299 2.10878 21.8483 4.10006 23.8419C6.09133 25.8356 8.63896 27.1804 11.4084 27.6999C14.1779 28.2194 17.0397 27.8892 19.6181 26.7527C22.1965 25.6162 24.3709 23.7265 25.8559 21.3318C27.3408 18.937 28.0669 16.1492 27.9387 13.3344C27.7753 9.85746 26.3217 6.5663 23.862 4.10357C21.4022 1.64085 18.1127 0.183404 14.636 0.0158507ZM26.1163 14.7567C25.4559 14.5821 24.3955 13.9058 22.7129 12.3375C23.4518 11.3129 24.3363 10.4016 25.3385 9.63249C25.869 11.0169 26.1412 12.4868 26.1417 13.9693C26.1417 14.2392 26.1322 14.4995 26.1163 14.7567ZM19.8015 5.15277C19.9517 6.47267 19.8992 7.80776 19.6459 9.11181C18.2173 7.38151 16.2076 4.60669 15.4583 1.90489C16.0712 1.97908 16.6773 2.10115 17.2712 2.27C17.9282 2.45117 18.5179 2.82065 18.9675 3.33289C19.4172 3.84514 19.7071 4.47776 19.8015 5.15277ZM13.5915 24.0051C7.15289 16.9283 7.41958 7.93711 7.87676 4.19078C9.36259 4.4162 11.3691 5.24801 13.9788 7.36564C15.7409 8.79107 17.409 10.3288 18.9729 11.9692C17.4616 17.4998 15.5567 21.3953 13.5915 24.0051ZM1.81596 13.9693C1.81276 11.7118 2.44305 9.49865 3.63515 7.58153C7.97201 13.5884 6.63539 20.1762 5.76548 22.9415C4.51948 21.8028 3.52468 20.4168 2.84463 18.8719C2.16458 17.327 1.81423 15.6573 1.81596 13.9693ZM17.7791 25.5385C17.3664 24.9543 17.4616 23.2399 19.0872 19.0015C19.6896 17.4838 20.406 16.0139 21.2302 14.6043C22.5793 16.2768 23.664 18.1463 24.4463 20.1476C22.9471 22.6901 20.5791 24.6047 17.7791 25.5385Z" fill="#1226AA"/>
<path d="M72.2597 24.7638C71.9725 24.4694 71.6294 24.2355 71.2504 24.0758C70.8715 23.9161 70.4644 23.8339 70.0532 23.8339C69.6419 23.8339 69.2349 23.9161 68.8559 24.0758C68.477 24.2355 68.1338 24.4694 67.8466 24.7638C67.5502 25.0521 67.316 25.398 67.1582 25.7801C67.0004 26.1623 66.9224 26.5728 66.9291 26.9862C66.9226 27.3968 67.0007 27.8043 67.1585 28.1834C67.3164 28.5624 67.5506 28.9049 67.8466 29.1895C68.1359 29.4842 68.4821 29.7169 68.8642 29.8735C69.2462 30.0302 69.6562 30.1075 70.069 30.1007C70.6889 30.104 71.2956 29.922 71.8114 29.5782C72.3271 29.2344 72.7284 28.7443 72.9638 28.1709C73.1992 27.5974 73.2579 26.9668 73.1325 26.3597C73.007 25.7527 72.7031 25.1969 72.2597 24.7638Z" fill="#1226AA"/>
<path d="M49.5944 9.19116H43.74V24.3003H49.5944V9.19116Z" fill="#1226AA"/>
<path d="M59.4079 9.20701H51.2295V24.3003H57.0839V11.258H58.7063V24.3003H64.548V14.7154C64.548 12.5057 64.2009 11.0326 63.5067 10.296C62.8124 9.55942 61.4462 9.19643 59.4079 9.20701Z" fill="#1226AA"/>
<path d="M46.6704 2.24784C46.2561 2.24106 45.8448 2.3199 45.4624 2.47943C45.08 2.63895 44.7346 2.87572 44.448 3.1749C44.1516 3.4632 43.9173 3.80907 43.7595 4.19126C43.6017 4.57345 43.5237 4.98387 43.5304 5.39729C43.5248 5.80681 43.6033 6.21312 43.7611 6.59103C43.919 6.96895 44.1527 7.31043 44.448 7.59429C44.7372 7.88894 45.0835 8.12166 45.4655 8.2783C45.8476 8.43494 46.2575 8.51224 46.6704 8.50548C47.0784 8.50847 47.4827 8.42839 47.8588 8.2701C48.2348 8.11181 48.5748 7.87864 48.8578 7.58477C49.1556 7.30388 49.3924 6.96474 49.5536 6.58842C49.7147 6.2121 49.7967 5.80665 49.7944 5.39729C49.8001 4.98344 49.721 4.57279 49.5622 4.19061C49.4033 3.80842 49.1679 3.46277 48.8705 3.1749C48.5875 2.8771 48.2459 2.64103 47.8673 2.4815C47.4887 2.32196 47.0812 2.24241 46.6704 2.24784Z" fill="#1226AA"/>
<path d="M79.5904 9.20703H72.5105C70.3304 9.28323 68.6636 9.92667 67.5101 11.1373C66.3565 12.348 65.7798 14.0582 65.7798 16.2679C65.7798 18.6215 66.2772 20.4058 67.272 21.6207C68.2668 22.8356 69.7261 23.442 71.6501 23.4399C71.8787 23.4399 72.0501 23.4399 72.1644 23.4399C72.2804 23.4363 72.3961 23.4246 72.5105 23.405V11.258H74.2916V24.7448C74.2916 24.9384 74.2916 25.2083 74.2916 25.5575C74.2916 25.9068 74.2916 26.1608 74.2916 26.3259C74.3241 27.1007 74.2166 27.8751 73.9741 28.6117C73.7482 29.1776 73.3796 29.6753 72.9042 30.0563C73.2109 30.1453 73.5226 30.2163 73.8376 30.269C74.0655 30.3053 74.2958 30.3244 74.5265 30.3262C76.4314 30.3262 77.8209 29.7886 78.6951 28.7133C79.5692 27.6381 80.0063 25.8856 80.0063 23.4558V9.20703H79.5904Z" fill="#1226AA"/>
<path d="M40.8858 2.24768L35.0441 6.54008V9.19109H33.0059V11.2579H35.0441V24.3002H40.8858V11.2579H42.9209V9.19109H40.8858V2.24768Z" fill="#1226AA"/>
</g>
<defs>
<clipPath id="clip0">
<rect width="80" height="30.3262" fill="white"/>
</clipPath>
</defs>
</svg>
