<svg width="719" height="264" viewBox="0 0 719 264" fill="none" xmlns="http://www.w3.org/2000/svg">
<path d="M122.936 161.728V177.388L112.64 161.728H106.484V187H112.64V171.412L122.936 187H129.092V161.728H122.936ZM153.571 176.956C153.571 170.584 149.035 166.624 143.131 166.624C137.263 166.624 132.691 170.584 132.691 176.956C132.691 183.328 137.155 187.288 143.059 187.288C148.963 187.288 153.571 183.328 153.571 176.956ZM138.955 176.956C138.955 173.536 140.899 171.952 143.131 171.952C145.291 171.952 147.307 173.536 147.307 176.956C147.307 180.34 145.255 181.96 143.059 181.96C140.827 181.96 138.955 180.34 138.955 176.956ZM165.185 187H171.341V176.092C171.341 173.356 172.853 171.844 175.193 171.844C177.533 171.844 179.045 173.356 179.045 176.092V187H185.165V175.264C185.165 169.864 182.105 166.696 177.533 166.696C174.761 166.696 172.565 167.884 171.341 169.612V160.36H165.185V187ZM188.579 176.92C188.579 183.256 192.503 187.288 197.399 187.288C200.387 187.288 202.511 185.92 203.627 184.156V187H209.783V166.912H203.627V169.756C202.547 167.992 200.423 166.624 197.435 166.624C192.503 166.624 188.579 170.584 188.579 176.92ZM203.627 176.956C203.627 180.16 201.575 181.924 199.235 181.924C196.931 181.924 194.843 180.124 194.843 176.92C194.843 173.716 196.931 171.988 199.235 171.988C201.575 171.988 203.627 173.752 203.627 176.956ZM223.849 179.476L219.205 166.912H212.329L220.501 186.316L215.893 196.54H222.517L235.117 166.912H228.457L223.849 179.476ZM251.848 177.676C251.848 174.22 253.54 173.212 256.456 173.212H258.148V166.696C255.448 166.696 253.252 168.136 251.848 170.26V166.912H245.692V187H251.848V177.676ZM270.306 171.556C272.358 171.556 274.086 172.816 274.086 175.012H266.382C266.742 172.78 268.29 171.556 270.306 171.556ZM279.918 180.34H273.366C272.862 181.42 271.89 182.284 270.162 182.284C268.182 182.284 266.562 181.06 266.346 178.432H280.278C280.35 177.82 280.386 177.208 280.386 176.632C280.386 170.512 276.246 166.624 270.378 166.624C264.402 166.624 260.226 170.584 260.226 176.956C260.226 183.328 264.474 187.288 270.378 187.288C275.382 187.288 278.946 184.264 279.918 180.34ZM290.15 169.756V166.912H283.994V196.576H290.15V184.192C291.266 185.884 293.39 187.288 296.342 187.288C301.274 187.288 305.198 183.256 305.198 176.92C305.198 170.584 301.274 166.624 296.342 166.624C293.39 166.624 291.266 167.992 290.15 169.756ZM298.934 176.92C298.934 180.124 296.846 181.924 294.506 181.924C292.202 181.924 290.114 180.16 290.114 176.956C290.114 173.752 292.202 171.988 294.506 171.988C296.846 171.988 298.934 173.716 298.934 176.92ZM328.443 176.956C328.443 170.584 323.907 166.624 318.003 166.624C312.135 166.624 307.563 170.584 307.563 176.956C307.563 183.328 312.027 187.288 317.931 187.288C323.835 187.288 328.443 183.328 328.443 176.956ZM313.827 176.956C313.827 173.536 315.771 171.952 318.003 171.952C320.163 171.952 322.179 173.536 322.179 176.956C322.179 180.34 320.127 181.96 317.931 181.96C315.699 181.96 313.827 180.34 313.827 176.956ZM338.225 177.676C338.225 174.22 339.917 173.212 342.833 173.212H344.525V166.696C341.825 166.696 339.629 168.136 338.225 170.26V166.912H332.069V187H338.225V177.676ZM348.8 180.016C348.8 185.236 351.716 187 355.892 187H359.024V181.78H356.828C355.46 181.78 354.956 181.276 354.956 180.088V172.024H358.988V166.912H354.956V162.016H348.8V166.912H346.352V172.024H348.8V180.016ZM371.669 171.556C373.721 171.556 375.449 172.816 375.449 175.012H367.745C368.105 172.78 369.653 171.556 371.669 171.556ZM381.281 180.34H374.729C374.225 181.42 373.253 182.284 371.525 182.284C369.545 182.284 367.925 181.06 367.709 178.432H381.641C381.713 177.82 381.749 177.208 381.749 176.632C381.749 170.512 377.609 166.624 371.741 166.624C365.765 166.624 361.589 170.584 361.589 176.956C361.589 183.328 365.837 187.288 371.741 187.288C376.745 187.288 380.309 184.264 381.281 180.34ZM401.664 181.168C401.556 173.68 390.684 175.948 390.684 172.744C390.684 171.772 391.476 171.196 392.916 171.196C394.644 171.196 395.688 172.096 395.868 173.464H401.556C401.16 169.504 398.28 166.624 393.096 166.624C387.84 166.624 384.924 169.432 384.924 172.852C384.924 180.232 395.868 177.892 395.868 181.132C395.868 182.032 395.04 182.752 393.456 182.752C391.764 182.752 390.504 181.816 390.36 180.412H384.276C384.564 184.3 388.164 187.288 393.528 187.288C398.568 187.288 401.664 184.66 401.664 181.168ZM412.555 176.92C412.555 183.256 416.479 187.288 421.411 187.288C424.363 187.288 426.487 185.884 427.603 184.12V186.964C427.603 190.348 425.767 191.572 423.427 191.572C421.303 191.572 419.791 190.6 419.395 189.088H413.311C413.851 193.876 417.739 196.9 423.715 196.9C430.663 196.9 433.759 192.328 433.759 186.964V166.912H427.603V169.756C426.523 167.956 424.363 166.624 421.411 166.624C416.479 166.624 412.555 170.584 412.555 176.92ZM427.603 176.956C427.603 180.16 425.551 181.924 423.211 181.924C420.907 181.924 418.819 180.124 418.819 176.92C418.819 173.716 420.907 171.988 423.211 171.988C425.551 171.988 427.603 173.752 427.603 176.956ZM447.429 171.556C449.481 171.556 451.209 172.816 451.209 175.012H443.505C443.865 172.78 445.413 171.556 447.429 171.556ZM457.041 180.34H450.489C449.985 181.42 449.013 182.284 447.285 182.284C445.305 182.284 443.685 181.06 443.469 178.432H457.401C457.473 177.82 457.509 177.208 457.509 176.632C457.509 170.512 453.369 166.624 447.501 166.624C441.525 166.624 437.349 170.584 437.349 176.956C437.349 183.328 441.597 187.288 447.501 187.288C452.505 187.288 456.069 184.264 457.041 180.34ZM474.977 187H481.097V175.264C481.097 169.864 478.001 166.696 473.357 166.696C470.657 166.696 468.497 167.884 467.273 169.576V166.912H461.117V187H467.273V176.092C467.273 173.356 468.785 171.844 471.125 171.844C473.465 171.844 474.977 173.356 474.977 176.092V187ZM494.59 171.556C496.642 171.556 498.37 172.816 498.37 175.012H490.666C491.026 172.78 492.574 171.556 494.59 171.556ZM504.202 180.34H497.65C497.146 181.42 496.174 182.284 494.446 182.284C492.466 182.284 490.846 181.06 490.63 178.432H504.562C504.634 177.82 504.67 177.208 504.67 176.632C504.67 170.512 500.53 166.624 494.662 166.624C488.686 166.624 484.51 170.584 484.51 176.956C484.51 183.328 488.758 187.288 494.662 187.288C499.666 187.288 503.23 184.264 504.202 180.34ZM514.434 177.676C514.434 174.22 516.126 173.212 519.042 173.212H520.734V166.696C518.034 166.696 515.838 168.136 514.434 170.26V166.912H508.278V187H514.434V177.676ZM522.812 176.92C522.812 183.256 526.736 187.288 531.632 187.288C534.62 187.288 536.744 185.92 537.86 184.156V187H544.016V166.912H537.86V169.756C536.78 167.992 534.656 166.624 531.668 166.624C526.736 166.624 522.812 170.584 522.812 176.92ZM537.86 176.956C537.86 180.16 535.808 181.924 533.468 181.924C531.164 181.924 529.076 180.124 529.076 176.92C529.076 173.716 531.164 171.988 533.468 171.988C535.808 171.988 537.86 173.752 537.86 176.956ZM547.606 176.92C547.606 183.256 551.53 187.288 556.462 187.288C559.414 187.288 561.538 185.956 562.654 184.12V187H568.81V160.36H562.654V169.684C561.43 167.848 559.126 166.624 556.462 166.624C551.53 166.624 547.606 170.584 547.606 176.92ZM562.654 176.956C562.654 180.16 560.602 181.924 558.262 181.924C555.958 181.924 553.87 180.124 553.87 176.92C553.87 173.716 555.958 171.988 558.262 171.988C560.602 171.988 562.654 173.752 562.654 176.956ZM593.28 176.956C593.28 170.584 588.744 166.624 582.84 166.624C576.972 166.624 572.4 170.584 572.4 176.956C572.4 183.328 576.864 187.288 582.768 187.288C588.672 187.288 593.28 183.328 593.28 176.956ZM578.664 176.956C578.664 173.536 580.608 171.952 582.84 171.952C585 171.952 587.016 173.536 587.016 176.956C587.016 180.34 584.964 181.96 582.768 181.96C580.536 181.96 578.664 180.34 578.664 176.956ZM613.214 181.168C613.106 173.68 602.234 175.948 602.234 172.744C602.234 171.772 603.026 171.196 604.466 171.196C606.194 171.196 607.238 172.096 607.418 173.464H613.106C612.71 169.504 609.83 166.624 604.646 166.624C599.39 166.624 596.474 169.432 596.474 172.852C596.474 180.232 607.418 177.892 607.418 181.132C607.418 182.032 606.59 182.752 605.006 182.752C603.314 182.752 602.054 181.816 601.91 180.412H595.826C596.114 184.3 599.714 187.288 605.078 187.288C610.118 187.288 613.214 184.66 613.214 181.168Z" fill="#C2CFE0"/>
<path d="M24.1506 218.68V213.56H26.8306C28.9106 213.56 29.7906 214.52 29.7906 216.14C29.7906 217.7 28.9106 218.68 26.8306 218.68H24.1506ZM31.6506 216.14C31.6506 213.86 30.1106 212.06 26.8306 212.06H22.3306V226H24.1506V220.18H26.8306C30.2906 220.18 31.6506 218.26 31.6506 216.14ZM33.4327 220.48C33.4327 223.88 35.6927 226.18 38.6127 226.18C40.6327 226.18 42.0527 225.14 42.7127 223.96V226H44.5527V215.04H42.7127V217.04C42.0727 215.9 40.6727 214.86 38.6327 214.86C35.6927 214.86 33.4327 217.06 33.4327 220.48ZM42.7127 220.5C42.7127 223.08 40.9927 224.58 38.9927 224.58C36.9927 224.58 35.2927 223.06 35.2927 220.48C35.2927 217.9 36.9927 216.44 38.9927 216.44C40.9927 216.44 42.7127 217.96 42.7127 220.5ZM49.6483 220.04C49.6483 217.5 50.9683 216.72 52.7083 216.72H53.1883V214.84C51.4483 214.84 50.2683 215.6 49.6483 216.82V215.04H47.8283V226H49.6483V220.04ZM54.8092 220.48C54.8092 223.88 57.0692 226.18 59.9892 226.18C62.0092 226.18 63.4292 225.14 64.0892 223.96V226H65.9292V215.04H64.0892V217.04C63.4492 215.9 62.0492 214.86 60.0092 214.86C57.0692 214.86 54.8092 217.06 54.8092 220.48ZM64.0892 220.5C64.0892 223.08 62.3692 224.58 60.3692 224.58C58.3692 224.58 56.6692 223.06 56.6692 220.48C56.6692 217.9 58.3692 216.44 60.3692 216.44C62.3692 216.44 64.0892 217.96 64.0892 220.5ZM74.0569 220.48C74.0569 223.88 76.3169 226.18 79.2569 226.18C81.2569 226.18 82.6769 225.12 83.3369 223.94V226.24C83.3369 228.58 81.8769 229.82 79.9369 229.82C78.1369 229.82 76.8369 228.92 76.4369 227.6H74.6369C74.9969 229.94 77.0569 231.4 79.9369 231.4C83.1569 231.4 85.1769 229.26 85.1769 226.24V215.04H83.3369V217.04C82.6969 215.86 81.2569 214.86 79.2569 214.86C76.3169 214.86 74.0569 217.06 74.0569 220.48ZM83.3369 220.5C83.3369 223.08 81.6169 224.58 79.6169 224.58C77.6169 224.58 75.9169 223.06 75.9169 220.48C75.9169 217.9 77.6169 216.44 79.6169 216.44C81.6169 216.44 83.3369 217.96 83.3369 220.5ZM93.1125 216.4C94.9925 216.4 96.5925 217.58 96.5725 219.72H89.6525C89.8525 217.58 91.3325 216.4 93.1125 216.4ZM98.2325 222.62H96.2725C95.8725 223.8 94.8325 224.64 93.1925 224.64C91.3325 224.64 89.7725 223.42 89.6325 221.2H98.3925C98.4325 220.82 98.4525 220.5 98.4525 220.1C98.4525 217.1 96.3725 214.86 93.1925 214.86C89.9925 214.86 87.7725 217.04 87.7725 220.5C87.7725 223.98 90.0725 226.18 93.1925 226.18C95.9125 226.18 97.6725 224.62 98.2325 222.62ZM109.075 226H110.875V219.54C110.875 216.4 108.935 214.84 106.395 214.84C104.915 214.84 103.595 215.46 102.875 216.6V215.04H101.055V226H102.875V219.94C102.875 217.58 104.155 216.42 106.015 216.42C107.855 216.42 109.075 217.56 109.075 219.8V226ZM118.708 216.4C120.588 216.4 122.188 217.58 122.168 219.72H115.248C115.448 217.58 116.928 216.4 118.708 216.4ZM123.828 222.62H121.868C121.468 223.8 120.428 224.64 118.788 224.64C116.928 224.64 115.368 223.42 115.228 221.2H123.988C124.028 220.82 124.048 220.5 124.048 220.1C124.048 217.1 121.968 214.86 118.788 214.86C115.588 214.86 113.368 217.04 113.368 220.5C113.368 223.98 115.668 226.18 118.788 226.18C121.508 226.18 123.268 224.62 123.828 222.62ZM128.47 220.04C128.47 217.5 129.79 216.72 131.53 216.72H132.01V214.84C130.27 214.84 129.09 215.6 128.47 216.82V215.04H126.65V226H128.47V220.04ZM133.631 220.48C133.631 223.88 135.891 226.18 138.811 226.18C140.831 226.18 142.251 225.14 142.911 223.96V226H144.751V215.04H142.911V217.04C142.271 215.9 140.871 214.86 138.831 214.86C135.891 214.86 133.631 217.06 133.631 220.48ZM142.911 220.5C142.911 223.08 141.191 224.58 139.191 224.58C137.191 224.58 135.491 223.06 135.491 220.48C135.491 217.9 137.191 216.44 139.191 216.44C141.191 216.44 142.911 217.96 142.911 220.5ZM149.847 220.04C149.847 217.5 151.167 216.72 152.907 216.72H153.387V214.84C151.647 214.84 150.467 215.6 149.847 216.82V215.04H148.027V226H149.847V220.04ZM170.94 215.04H169.12V221.06C169.12 223.42 167.86 224.58 165.98 224.58C164.14 224.58 162.92 223.44 162.92 221.22V215.04H161.12V221.46C161.12 224.6 163.1 226.16 165.62 226.16C167.08 226.16 168.42 225.52 169.12 224.38V226H170.94V215.04ZM182.233 226H184.033V219.54C184.033 216.4 182.093 214.84 179.553 214.84C178.073 214.84 176.753 215.46 176.033 216.6V215.04H174.213V226H176.033V219.94C176.033 217.58 177.313 216.42 179.173 216.42C181.013 216.42 182.233 217.56 182.233 219.8V226ZM194.558 220.04C194.558 217.5 195.878 216.72 197.618 216.72H198.098V214.84C196.358 214.84 195.178 215.6 194.558 216.82V215.04H192.738V226H194.558V220.04ZM205.059 216.4C206.939 216.4 208.539 217.58 208.519 219.72H201.599C201.799 217.58 203.279 216.4 205.059 216.4ZM210.179 222.62H208.219C207.819 223.8 206.779 224.64 205.139 224.64C203.279 224.64 201.719 223.42 201.579 221.2H210.339C210.379 220.82 210.399 220.5 210.399 220.1C210.399 217.1 208.319 214.86 205.139 214.86C201.939 214.86 199.719 217.04 199.719 220.5C199.719 223.98 202.019 226.18 205.139 226.18C207.859 226.18 209.619 224.62 210.179 222.62ZM214.821 217.06V215.04H213.001V231.2H214.821V223.98C215.501 225.1 216.921 226.18 218.921 226.18C221.861 226.18 224.121 223.88 224.121 220.48C224.121 217.06 221.861 214.86 218.921 214.86C216.921 214.86 215.481 215.9 214.821 217.06ZM222.261 220.48C222.261 223.06 220.561 224.58 218.541 224.58C216.561 224.58 214.821 223.08 214.821 220.5C214.821 217.96 216.561 216.44 218.541 216.44C220.561 216.44 222.261 217.9 222.261 220.48ZM237.117 220.5C237.117 217.04 234.697 214.86 231.577 214.86C228.477 214.86 226.037 217.04 226.037 220.5C226.037 223.98 228.397 226.18 231.497 226.18C234.617 226.18 237.117 223.98 237.117 220.5ZM227.897 220.5C227.897 217.74 229.637 216.44 231.557 216.44C233.437 216.44 235.257 217.74 235.257 220.5C235.257 223.28 233.397 224.58 231.497 224.58C229.597 224.58 227.897 223.28 227.897 220.5ZM241.53 220.04C241.53 217.5 242.85 216.72 244.59 216.72H245.07V214.84C243.33 214.84 242.15 215.6 241.53 216.82V215.04H239.71V226H241.53V220.04ZM247.77 223C247.77 225.2 248.87 226 250.81 226H252.45V224.46H251.11C249.99 224.46 249.59 224.08 249.59 223V216.54H252.45V215.04H249.59V212.28H247.77V215.04H246.35V216.54H247.77V223ZM259.516 216.4C261.396 216.4 262.996 217.58 262.976 219.72H256.056C256.256 217.58 257.736 216.4 259.516 216.4ZM264.636 222.62H262.676C262.276 223.8 261.236 224.64 259.596 224.64C257.736 224.64 256.176 223.42 256.036 221.2H264.796C264.836 220.82 264.856 220.5 264.856 220.1C264.856 217.1 262.776 214.86 259.596 214.86C256.396 214.86 254.176 217.04 254.176 220.5C254.176 223.98 256.476 226.18 259.596 226.18C262.316 226.18 264.076 224.62 264.636 222.62ZM265.878 228.86H267.098L269.338 223.48H267.338L265.878 228.86ZM278.975 217.06V215.04H277.155V231.2H278.975V223.98C279.655 225.1 281.075 226.18 283.075 226.18C286.015 226.18 288.275 223.88 288.275 220.48C288.275 217.06 286.015 214.86 283.075 214.86C281.075 214.86 279.635 215.9 278.975 217.06ZM286.415 220.48C286.415 223.06 284.715 224.58 282.695 224.58C280.715 224.58 278.975 223.08 278.975 220.5C278.975 217.96 280.715 216.44 282.695 216.44C284.715 216.44 286.415 217.9 286.415 220.48ZM301.27 220.5C301.27 217.04 298.85 214.86 295.73 214.86C292.63 214.86 290.19 217.04 290.19 220.5C290.19 223.98 292.55 226.18 295.65 226.18C298.77 226.18 301.27 223.98 301.27 220.5ZM292.05 220.5C292.05 217.74 293.79 216.44 295.71 216.44C297.59 216.44 299.41 217.74 299.41 220.5C299.41 223.28 297.55 224.58 295.65 224.58C293.75 224.58 292.05 223.28 292.05 220.5ZM305.683 220.04C305.683 217.5 307.003 216.72 308.743 216.72H309.223V214.84C307.483 214.84 306.303 215.6 305.683 216.82V215.04H303.863V226H305.683V220.04ZM317.396 226H319.216V216.54H321.516V215.04H319.216V214.26C319.216 212.84 319.756 212.24 321.396 212.24V210.72C318.596 210.72 317.396 211.82 317.396 214.26V215.04H315.976V216.54H317.396V226ZM323.158 220.48C323.158 223.88 325.418 226.18 328.338 226.18C330.358 226.18 331.778 225.14 332.438 223.96V226H334.278V215.04H332.438V217.04C331.798 215.9 330.398 214.86 328.358 214.86C325.418 214.86 323.158 217.06 323.158 220.48ZM332.438 220.5C332.438 223.08 330.718 224.58 328.718 224.58C326.718 224.58 325.018 223.06 325.018 220.48C325.018 217.9 326.718 216.44 328.718 216.44C330.718 216.44 332.438 217.96 332.438 220.5ZM336.254 215.04L340.554 226H342.674L346.974 215.04H345.034L341.634 224.32L338.214 215.04H336.254ZM359.365 220.5C359.365 217.04 356.945 214.86 353.825 214.86C350.725 214.86 348.285 217.04 348.285 220.5C348.285 223.98 350.645 226.18 353.745 226.18C356.865 226.18 359.365 223.98 359.365 220.5ZM350.145 220.5C350.145 217.74 351.885 216.44 353.805 216.44C355.685 216.44 357.505 217.74 357.505 220.5C357.505 223.28 355.645 224.58 353.745 224.58C351.845 224.58 350.145 223.28 350.145 220.5ZM363.778 220.04C363.778 217.5 365.098 216.72 366.838 216.72H367.318V214.84C365.578 214.84 364.398 215.6 363.778 216.82V215.04H361.958V226H363.778V220.04ZM383.031 223.02C382.951 219.1 376.591 220.52 376.591 217.92C376.591 217.04 377.391 216.4 378.731 216.4C380.191 216.4 381.031 217.2 381.111 218.3H382.931C382.811 216.16 381.211 214.86 378.791 214.86C376.351 214.86 374.771 216.24 374.771 217.92C374.771 222 381.251 220.58 381.251 223.02C381.251 223.92 380.451 224.64 379.011 224.64C377.471 224.64 376.531 223.84 376.431 222.78H374.551C374.671 224.78 376.471 226.18 379.031 226.18C381.451 226.18 383.031 224.82 383.031 223.02ZM390.46 216.4C392.34 216.4 393.94 217.58 393.92 219.72H387C387.2 217.58 388.68 216.4 390.46 216.4ZM395.58 222.62H393.62C393.22 223.8 392.18 224.64 390.54 224.64C388.68 224.64 387.12 223.42 386.98 221.2H395.74C395.78 220.82 395.8 220.5 395.8 220.1C395.8 217.1 393.72 214.86 390.54 214.86C387.34 214.86 385.12 217.04 385.12 220.5C385.12 223.98 387.42 226.18 390.54 226.18C393.26 226.18 395.02 224.62 395.58 222.62ZM398.402 226H400.222V211.2H398.402V226ZM408.184 216.4C410.064 216.4 411.664 217.58 411.644 219.72H404.724C404.924 217.58 406.404 216.4 408.184 216.4ZM413.304 222.62H411.344C410.944 223.8 409.904 224.64 408.264 224.64C406.404 224.64 404.844 223.42 404.704 221.2H413.464C413.504 220.82 413.524 220.5 413.524 220.1C413.524 217.1 411.444 214.86 408.264 214.86C405.064 214.86 402.844 217.04 402.844 220.5C402.844 223.98 405.144 226.18 408.264 226.18C410.984 226.18 412.744 224.62 413.304 222.62ZM415.447 220.5C415.447 223.98 417.667 226.18 420.787 226.18C423.507 226.18 425.287 224.66 425.847 222.48H423.887C423.487 223.86 422.407 224.64 420.787 224.64C418.787 224.64 417.307 223.22 417.307 220.5C417.307 217.82 418.787 216.4 420.787 216.4C422.407 216.4 423.507 217.24 423.887 218.56H425.847C425.287 216.26 423.507 214.86 420.787 214.86C417.667 214.86 415.447 217.06 415.447 220.5ZM427.795 220.5C427.795 223.98 430.015 226.18 433.135 226.18C435.855 226.18 437.635 224.66 438.195 222.48H436.235C435.835 223.86 434.755 224.64 433.135 224.64C431.135 224.64 429.655 223.22 429.655 220.5C429.655 217.82 431.135 216.4 433.135 216.4C434.755 216.4 435.855 217.24 436.235 218.56H438.195C437.635 216.26 435.855 214.86 433.135 214.86C430.015 214.86 427.795 217.06 427.795 220.5ZM440.824 226H442.644V215.04H440.824V226ZM441.764 213.26C442.424 213.26 442.964 212.72 442.964 212.02C442.964 211.32 442.424 210.78 441.764 210.78C441.064 210.78 440.524 211.32 440.524 212.02C440.524 212.72 441.064 213.26 441.764 213.26ZM456.345 220.5C456.345 217.04 453.925 214.86 450.805 214.86C447.705 214.86 445.265 217.04 445.265 220.5C445.265 223.98 447.625 226.18 450.725 226.18C453.845 226.18 456.345 223.98 456.345 220.5ZM447.125 220.5C447.125 217.74 448.865 216.44 450.785 216.44C452.665 216.44 454.485 217.74 454.485 220.5C454.485 223.28 452.625 224.58 450.725 224.58C448.825 224.58 447.125 223.28 447.125 220.5ZM466.958 226H468.758V219.54C468.758 216.4 466.818 214.84 464.278 214.84C462.798 214.84 461.478 215.46 460.758 216.6V215.04H458.938V226H460.758V219.94C460.758 217.58 462.038 216.42 463.898 216.42C465.738 216.42 466.958 217.56 466.958 219.8V226ZM476.591 216.4C478.471 216.4 480.071 217.58 480.051 219.72H473.131C473.331 217.58 474.811 216.4 476.591 216.4ZM481.711 222.62H479.751C479.351 223.8 478.311 224.64 476.671 224.64C474.811 224.64 473.251 223.42 473.111 221.2H481.871C481.911 220.82 481.931 220.5 481.931 220.1C481.931 217.1 479.851 214.86 476.671 214.86C473.471 214.86 471.251 217.04 471.251 220.5C471.251 223.98 473.551 226.18 476.671 226.18C479.391 226.18 481.151 224.62 481.711 222.62ZM490.066 226H491.886V211.2H490.066V226ZM505.588 220.5C505.588 217.04 503.168 214.86 500.048 214.86C496.948 214.86 494.508 217.04 494.508 220.5C494.508 223.98 496.868 226.18 499.968 226.18C503.088 226.18 505.588 223.98 505.588 220.5ZM496.368 220.5C496.368 217.74 498.108 216.44 500.028 216.44C501.908 216.44 503.728 217.74 503.728 220.5C503.728 223.28 501.868 224.58 499.968 224.58C498.068 224.58 496.368 223.28 496.368 220.5ZM516.061 223.02C515.981 219.1 509.621 220.52 509.621 217.92C509.621 217.04 510.421 216.4 511.761 216.4C513.221 216.4 514.061 217.2 514.141 218.3H515.961C515.841 216.16 514.241 214.86 511.821 214.86C509.381 214.86 507.801 216.24 507.801 217.92C507.801 222 514.281 220.58 514.281 223.02C514.281 223.92 513.481 224.64 512.041 224.64C510.501 224.64 509.561 223.84 509.461 222.78H507.581C507.701 224.78 509.501 226.18 512.061 226.18C514.481 226.18 516.061 224.82 516.061 223.02ZM526.182 217.06V215.04H524.362V231.2H526.182V223.98C526.862 225.1 528.282 226.18 530.282 226.18C533.222 226.18 535.482 223.88 535.482 220.48C535.482 217.06 533.222 214.86 530.282 214.86C528.282 214.86 526.842 215.9 526.182 217.06ZM533.622 220.48C533.622 223.06 531.922 224.58 529.902 224.58C527.922 224.58 526.182 223.08 526.182 220.5C526.182 217.96 527.922 216.44 529.902 216.44C531.922 216.44 533.622 217.9 533.622 220.48ZM537.397 220.48C537.397 223.88 539.657 226.18 542.577 226.18C544.597 226.18 546.017 225.14 546.677 223.96V226H548.517V215.04H546.677V217.04C546.037 215.9 544.637 214.86 542.597 214.86C539.657 214.86 537.397 217.06 537.397 220.48ZM546.677 220.5C546.677 223.08 544.957 224.58 542.957 224.58C540.957 224.58 539.257 223.06 539.257 220.48C539.257 217.9 540.957 216.44 542.957 216.44C544.957 216.44 546.677 217.96 546.677 220.5ZM553.613 220.04C553.613 217.5 554.933 216.72 556.673 216.72H557.153V214.84C555.413 214.84 554.233 215.6 553.613 216.82V215.04H551.793V226H553.613V220.04ZM558.774 220.48C558.774 223.88 561.034 226.18 563.954 226.18C565.974 226.18 567.394 225.14 568.054 223.96V226H569.894V215.04H568.054V217.04C567.414 215.9 566.014 214.86 563.974 214.86C561.034 214.86 558.774 217.06 558.774 220.48ZM568.054 220.5C568.054 223.08 566.334 224.58 564.334 224.58C562.334 224.58 560.634 223.06 560.634 220.48C560.634 217.9 562.334 216.44 564.334 216.44C566.334 216.44 568.054 217.96 568.054 220.5ZM562.374 212.86V214.22L566.634 211.94V210.36L562.374 212.86ZM588.99 226H590.79V219.54C590.79 216.4 588.85 214.84 586.35 214.84C584.67 214.84 583.11 215.7 582.47 217.28C581.75 215.64 580.25 214.84 578.45 214.84C577.01 214.84 575.71 215.46 574.99 216.62V215.04H573.17V226H574.99V219.96C574.99 217.6 576.25 216.42 578.09 216.42C579.89 216.42 581.09 217.56 581.09 219.8V226H582.89V219.96C582.89 217.6 584.15 216.42 585.99 216.42C587.79 216.42 588.99 217.56 588.99 219.8V226ZM598.635 216.4C600.515 216.4 602.115 217.58 602.095 219.72H595.175C595.375 217.58 596.855 216.4 598.635 216.4ZM603.755 222.62H601.795C601.395 223.8 600.355 224.64 598.715 224.64C596.855 224.64 595.295 223.42 595.155 221.2H603.915C603.955 220.82 603.975 220.5 603.975 220.1C603.975 217.1 601.895 214.86 598.715 214.86C595.515 214.86 593.295 217.04 593.295 220.5C593.295 223.98 595.595 226.18 598.715 226.18C601.435 226.18 603.195 224.62 603.755 222.62ZM606.977 223C606.977 225.2 608.077 226 610.017 226H611.657V224.46H610.317C609.197 224.46 608.797 224.08 608.797 223V216.54H611.657V215.04H608.797V212.28H606.977V215.04H605.557V216.54H606.977V223ZM615.883 220.04C615.883 217.5 617.203 216.72 618.943 216.72H619.423V214.84C617.683 214.84 616.503 215.6 615.883 216.82V215.04H614.063V226H615.883V220.04ZM632.124 220.5C632.124 217.04 629.704 214.86 626.584 214.86C623.484 214.86 621.044 217.04 621.044 220.5C621.044 223.98 623.404 226.18 626.504 226.18C629.624 226.18 632.124 223.98 632.124 220.5ZM622.904 220.5C622.904 217.74 624.644 216.44 626.564 216.44C628.444 216.44 630.264 217.74 630.264 220.5C630.264 223.28 628.404 224.58 626.504 224.58C624.604 224.58 622.904 223.28 622.904 220.5ZM642.597 223.02C642.517 219.1 636.157 220.52 636.157 217.92C636.157 217.04 636.957 216.4 638.297 216.4C639.757 216.4 640.597 217.2 640.677 218.3H642.497C642.377 216.16 640.777 214.86 638.357 214.86C635.917 214.86 634.337 216.24 634.337 217.92C634.337 222 640.817 220.58 640.817 223.02C640.817 223.92 640.017 224.64 638.577 224.64C637.037 224.64 636.097 223.84 635.997 222.78H634.117C634.237 224.78 636.037 226.18 638.597 226.18C641.017 226.18 642.597 224.82 642.597 223.02ZM655.558 216.4C657.438 216.4 659.038 217.58 659.018 219.72H652.098C652.298 217.58 653.778 216.4 655.558 216.4ZM660.678 222.62H658.718C658.318 223.8 657.278 224.64 655.638 224.64C653.778 224.64 652.218 223.42 652.078 221.2H660.838C660.878 220.82 660.898 220.5 660.898 220.1C660.898 217.1 658.818 214.86 655.638 214.86C652.438 214.86 650.218 217.04 650.218 220.5C650.218 223.98 652.518 226.18 655.638 226.18C658.358 226.18 660.118 224.62 660.678 222.62ZM671.52 226H673.32V219.54C673.32 216.4 671.38 214.84 668.84 214.84C667.36 214.84 666.04 215.46 665.32 216.6V215.04H663.5V226H665.32V219.94C665.32 217.58 666.6 216.42 668.46 216.42C670.3 216.42 671.52 217.56 671.52 219.8V226ZM686.685 216.4C688.565 216.4 690.165 217.58 690.145 219.72H683.225C683.425 217.58 684.905 216.4 686.685 216.4ZM691.805 222.62H689.845C689.445 223.8 688.405 224.64 686.765 224.64C684.905 224.64 683.345 223.42 683.205 221.2H691.965C692.005 220.82 692.025 220.5 692.025 220.1C692.025 217.1 689.945 214.86 686.765 214.86C683.565 214.86 681.345 217.04 681.345 220.5C681.345 223.98 683.645 226.18 686.765 226.18C689.485 226.18 691.245 224.62 691.805 222.62ZM694.628 226H696.448V211.2H694.628V226ZM265.337 250.48C265.337 253.88 267.597 256.18 270.517 256.18C272.537 256.18 273.957 255.14 274.617 253.96V256H276.457V245.04H274.617V247.04C273.977 245.9 272.577 244.86 270.537 244.86C267.597 244.86 265.337 247.06 265.337 250.48ZM274.617 250.5C274.617 253.08 272.897 254.58 270.897 254.58C268.897 254.58 267.197 253.06 267.197 250.48C267.197 247.9 268.897 246.44 270.897 246.44C272.897 246.44 274.617 247.96 274.617 250.5ZM281.553 247.06V245.04H279.733V261.2H281.553V253.98C282.233 255.1 283.653 256.18 285.653 256.18C288.593 256.18 290.853 253.88 290.853 250.48C290.853 247.06 288.593 244.86 285.653 244.86C283.653 244.86 282.213 245.9 281.553 247.06ZM288.993 250.48C288.993 253.06 287.293 254.58 285.273 254.58C283.293 254.58 281.553 253.08 281.553 250.5C281.553 247.96 283.293 246.44 285.273 246.44C287.293 246.44 288.993 247.9 288.993 250.48ZM292.769 250.48C292.769 253.88 295.029 256.18 297.949 256.18C299.969 256.18 301.389 255.14 302.049 253.96V256H303.889V245.04H302.049V247.04C301.409 245.9 300.009 244.86 297.969 244.86C295.029 244.86 292.769 247.06 292.769 250.48ZM302.049 250.5C302.049 253.08 300.329 254.58 298.329 254.58C296.329 254.58 294.629 253.06 294.629 250.48C294.629 247.9 296.329 246.44 298.329 246.44C300.329 246.44 302.049 247.96 302.049 250.5ZM308.984 250.04C308.984 247.5 310.304 246.72 312.044 246.72H312.524V244.84C310.784 244.84 309.604 245.6 308.984 246.82V245.04H307.164V256H308.984V250.04ZM315.225 253C315.225 255.2 316.325 256 318.265 256H319.905V254.46H318.565C317.445 254.46 317.045 254.08 317.045 253V246.54H319.905V245.04H317.045V242.28H315.225V245.04H313.805V246.54H315.225V253ZM321.63 250.48C321.63 253.88 323.89 256.18 326.81 256.18C328.83 256.18 330.25 255.14 330.91 253.96V256H332.75V245.04H330.91V247.04C330.27 245.9 328.87 244.86 326.83 244.86C323.89 244.86 321.63 247.06 321.63 250.48ZM330.91 250.5C330.91 253.08 329.19 254.58 327.19 254.58C325.19 254.58 323.49 253.06 323.49 250.48C323.49 247.9 325.19 246.44 327.19 246.44C329.19 246.44 330.91 247.96 330.91 250.5ZM335.346 250.48C335.346 253.88 337.606 256.18 340.546 256.18C342.546 256.18 343.966 255.16 344.626 253.94V256H346.466V241.2H344.626V247C343.866 245.74 342.286 244.86 340.566 244.86C337.606 244.86 335.346 247.06 335.346 250.48ZM344.626 250.5C344.626 253.08 342.906 254.58 340.906 254.58C338.906 254.58 337.206 253.06 337.206 250.48C337.206 247.9 338.906 246.44 340.906 246.44C342.906 246.44 344.626 247.96 344.626 250.5ZM360.142 250.5C360.142 247.04 357.722 244.86 354.602 244.86C351.502 244.86 349.062 247.04 349.062 250.5C349.062 253.98 351.422 256.18 354.522 256.18C357.642 256.18 360.142 253.98 360.142 250.5ZM350.922 250.5C350.922 247.74 352.662 246.44 354.582 246.44C356.462 246.44 358.282 247.74 358.282 250.5C358.282 253.28 356.422 254.58 354.522 254.58C352.622 254.58 350.922 253.28 350.922 250.5ZM376.147 253.02C376.067 249.1 369.707 250.52 369.707 247.92C369.707 247.04 370.507 246.4 371.847 246.4C373.307 246.4 374.147 247.2 374.227 248.3H376.047C375.927 246.16 374.327 244.86 371.907 244.86C369.467 244.86 367.887 246.24 367.887 247.92C367.887 252 374.367 250.58 374.367 253.02C374.367 253.92 373.567 254.64 372.127 254.64C370.587 254.64 369.647 253.84 369.547 252.78H367.667C367.787 254.78 369.587 256.18 372.147 256.18C374.567 256.18 376.147 254.82 376.147 253.02ZM388.636 245.04H386.816V251.06C386.816 253.42 385.556 254.58 383.676 254.58C381.836 254.58 380.616 253.44 380.616 251.22V245.04H378.816V251.46C378.816 254.6 380.796 256.16 383.316 256.16C384.776 256.16 386.116 255.52 386.816 254.38V256H388.636V245.04ZM393.729 247.06V245.04H391.909V261.2H393.729V253.98C394.409 255.1 395.829 256.18 397.829 256.18C400.769 256.18 403.029 253.88 403.029 250.48C403.029 247.06 400.769 244.86 397.829 244.86C395.829 244.86 394.389 245.9 393.729 247.06ZM401.169 250.48C401.169 253.06 399.469 254.58 397.449 254.58C395.469 254.58 393.729 253.08 393.729 250.5C393.729 247.96 395.469 246.44 397.449 246.44C399.469 246.44 401.169 247.9 401.169 250.48ZM410.284 246.4C412.164 246.4 413.764 247.58 413.744 249.72H406.824C407.024 247.58 408.504 246.4 410.284 246.4ZM415.404 252.62H413.444C413.044 253.8 412.004 254.64 410.364 254.64C408.504 254.64 406.944 253.42 406.804 251.2H415.564C415.604 250.82 415.624 250.5 415.624 250.1C415.624 247.1 413.544 244.86 410.364 244.86C407.164 244.86 404.944 247.04 404.944 250.5C404.944 253.98 407.244 256.18 410.364 256.18C413.084 256.18 414.844 254.62 415.404 252.62ZM420.047 250.04C420.047 247.5 421.367 246.72 423.107 246.72H423.587V244.84C421.847 244.84 420.667 245.6 420.047 246.82V245.04H418.227V256H420.047V250.04ZM425.888 256H427.708V245.04H425.888V256ZM426.828 243.26C427.488 243.26 428.028 242.72 428.028 242.02C428.028 241.32 427.488 240.78 426.828 240.78C426.128 240.78 425.588 241.32 425.588 242.02C425.588 242.72 426.128 243.26 426.828 243.26ZM441.41 250.5C441.41 247.04 438.99 244.86 435.87 244.86C432.77 244.86 430.33 247.04 430.33 250.5C430.33 253.98 432.69 256.18 435.79 256.18C438.91 256.18 441.41 253.98 441.41 250.5ZM432.19 250.5C432.19 247.74 433.93 246.44 435.85 246.44C437.73 246.44 439.55 247.74 439.55 250.5C439.55 253.28 437.69 254.58 435.79 254.58C433.89 254.58 432.19 253.28 432.19 250.5ZM445.823 250.04C445.823 247.5 447.143 246.72 448.883 246.72H449.363V244.84C447.623 244.84 446.443 245.6 445.823 246.82V245.04H444.003V256H445.823V250.04ZM453.443 254.88C453.443 254.18 452.903 253.64 452.243 253.64C451.543 253.64 451.003 254.18 451.003 254.88C451.003 255.58 451.543 256.12 452.243 256.12C452.903 256.12 453.443 255.58 453.443 254.88Z" fill="#8492A4"/>
<g clip-path="url(#clip0)">
<path d="M399 128H319C311.651 128 305.667 122.016 305.667 114.667V13.3333C305.667 5.984 311.651 0 319 0H399C406.349 0 412.333 5.984 412.333 13.3333V114.667C412.333 122.016 406.349 128 399 128ZM319 5.33333C314.589 5.33333 311 8.92267 311 13.3333V114.667C311 119.077 314.589 122.667 319 122.667H399C403.411 122.667 407 119.077 407 114.667V13.3333C407 8.92267 403.411 5.33333 399 5.33333H319Z" fill="#C2CFE0"/>
<path d="M393.667 64.0003H383C381.528 64.0003 380.333 62.8057 380.333 61.3337C380.333 59.8617 381.528 58.667 383 58.667H393.667C395.139 58.667 396.333 59.8617 396.333 61.3337C396.333 62.8057 395.139 64.0003 393.667 64.0003Z" fill="#C2CFE0"/>
<path d="M393.667 48.0003H383C381.528 48.0003 380.333 46.8057 380.333 45.3337C380.333 43.8617 381.528 42.667 383 42.667H393.667C395.139 42.667 396.333 43.8617 396.333 45.3337C396.333 46.8057 395.139 48.0003 393.667 48.0003Z" fill="#C2CFE0"/>
<path d="M393.667 80.0003H383C381.528 80.0003 380.333 78.8057 380.333 77.3337C380.333 75.8617 381.528 74.667 383 74.667H393.667C395.139 74.667 396.333 75.8617 396.333 77.3337C396.333 78.8057 395.139 80.0003 393.667 80.0003Z" fill="#C2CFE0"/>
<path d="M393.667 96.0003H383C381.528 96.0003 380.333 94.8057 380.333 93.3337C380.333 91.8617 381.528 90.667 383 90.667H393.667C395.139 90.667 396.333 91.8617 396.333 93.3337C396.333 94.8057 395.139 96.0003 393.667 96.0003Z" fill="#C2CFE0"/>
<path d="M393.667 112H324.333C322.861 112 321.667 110.806 321.667 109.334C321.667 107.862 322.861 106.667 324.333 106.667H393.667C395.139 106.667 396.333 107.862 396.333 109.334C396.333 110.806 395.139 112 393.667 112Z" fill="#C2CFE0"/>
<path d="M348.333 96.0003C333.629 96.0003 321.667 84.0377 321.667 69.3337C321.667 54.6297 333.629 42.667 348.333 42.667C363.037 42.667 375 54.6297 375 69.3337C375 84.0377 363.037 96.0003 348.333 96.0003ZM348.333 48.0003C336.568 48.0003 327 57.5683 327 69.3337C327 81.099 336.568 90.667 348.333 90.667C360.099 90.667 369.667 81.099 369.667 69.3337C369.667 57.5683 360.099 48.0003 348.333 48.0003Z" fill="#C2CFE0"/>
<path d="M331.363 88.971C330.68 88.971 329.997 88.7096 329.475 88.1923C328.435 87.1523 328.435 85.4617 329.475 84.4216L345.667 68.2297V45.3337C345.667 43.8617 346.861 42.667 348.333 42.667C349.805 42.667 351 43.8617 351 45.3337V69.3337C351 70.043 350.717 70.7203 350.221 71.2217L333.251 88.1923C332.728 88.7096 332.045 88.971 331.363 88.971Z" fill="#C2CFE0"/>
</g>
<defs>
<clipPath id="clip0">
<rect width="128" height="128" fill="white" transform="translate(295)"/>
</clipPath>
</defs>
</svg>
