<svg width="42" height="42" viewBox="0 0 42 42" fill="none" xmlns="http://www.w3.org/2000/svg">
<path fill-rule="evenodd" clip-rule="evenodd" d="M24.3333 12.667H27.8182C28.655 12.667 29.3333 13.4132 29.3333 14.3337V17.667H27.6667V14.3337H24.3333V12.667ZM14.1818 29.3337H17.6667V27.667H14.3333V24.3337H12.6667V27.667C12.6667 28.5875 13.345 29.3337 14.1818 29.3337ZM24.3333 27.667V29.3337H27.8182C28.655 29.3337 29.3333 28.5875 29.3333 27.667V24.3337H27.6667V27.667H24.3333ZM17.6667 14.3337V12.667H14.1818C13.345 12.667 12.6667 13.4132 12.6667 14.3337V17.667H14.3333V14.3337H17.6667Z" fill="#109CF1"/>
<rect x="0.5" y="0.5" width="41" height="41" rx="3.5" stroke="#109CF1"/>
</svg>
