<svg width="44" height="44" viewBox="0 0 44 44" fill="none" xmlns="http://www.w3.org/2000/svg">
<g clip-path="url(#clip0)">
<path d="M28.765 0H6.37999C5.82995 0 5.33496 0.440016 5.33496 1.04503V42.955C5.33496 43.5051 5.77498 44.0001 6.37999 44.0001H37.6201C38.1701 44.0001 38.6651 43.56 38.6651 42.955V9.90004C38.6651 9.62502 38.5551 9.35 38.3901 9.18501L29.48 0.275022C29.26 0.110027 29.04 0 28.765 0Z" fill="#EBF0F3"/>
<path d="M30.1949 9.46064H38.555C38.5 9.35061 38.4449 9.24068 38.335 9.18562L33.88 4.73058L29.4799 0.275627C29.3699 0.1656 29.3149 0.110632 29.2049 0.0556641V8.41561C29.1499 9.02062 29.6449 9.46064 30.1949 9.46064Z" fill="#D5D6DB"/>
<path d="M12.595 38.885C11.825 38.885 11.22 38.445 10.945 38.17C10.01 37.07 10.01 36.135 10.175 35.53C10.285 34.9799 10.615 34.485 11.11 34.155C11.825 33.6049 13.805 32.23 16.72 31.02C18.26 28.215 19.305 25.9599 20.02 24.145C18.8099 21.835 18.3699 19.965 18.26 19.03C18.15 18.26 18.205 17.49 18.425 16.83C18.975 15.07 20.185 15.0149 20.6799 15.07C20.79 15.07 22.7149 15.345 23.0449 18.095C23.0449 18.205 23.2649 19.965 21.7799 24.0899C22.7149 25.6849 24.0349 27.445 26.07 29.15C27.995 29.15 30.085 29.315 32.285 29.865C32.78 29.975 33.22 30.25 33.55 30.635C34.1 31.24 34.21 32.01 33.935 32.78C33.935 32.78 33.8249 33.165 33.4949 33.5501C32.8899 34.375 31.735 34.65 30.8 34.1551C28.71 33.0551 26.9499 31.9001 25.5199 30.6901C22.6049 30.8001 20.02 31.4601 17.9299 32.2851C16.9949 33.9901 15.8399 35.8601 14.5199 37.95C14.2449 38.335 13.9149 38.6651 13.4749 38.8301C13.09 38.83 12.815 38.885 12.595 38.885ZM15.29 33.33C13.64 34.21 12.485 34.98 12.045 35.365C11.88 35.53 11.715 35.695 11.715 35.86C11.605 36.2449 11.77 36.63 12.155 37.07C12.155 37.07 12.485 37.345 12.815 37.235C12.925 37.18 13.0349 37.125 13.09 36.96C13.86 35.695 14.63 34.485 15.29 33.33ZM28.105 30.69C29.095 31.35 30.1949 32.065 31.405 32.67C31.6249 32.78 31.9 32.725 32.0649 32.505C32.2299 32.2851 32.2849 32.1201 32.2849 32.1201C32.3949 31.845 32.3949 31.7351 32.2299 31.57C32.1199 31.46 31.9549 31.3501 31.735 31.295C30.525 30.965 29.315 30.8 28.105 30.69ZM20.955 25.795C20.4049 27.06 19.7449 28.49 18.865 30.14C20.35 29.7 21.945 29.3151 23.705 29.1501C22.605 27.995 21.67 26.84 20.955 25.795ZM20.405 16.555C20.1851 16.555 20.0201 16.7749 19.855 17.27C19.69 17.71 19.69 18.205 19.7449 18.755C19.855 19.415 20.0749 20.515 20.6799 21.945C21.5049 19.305 21.395 18.205 21.395 18.205C21.23 16.72 20.46 16.555 20.405 16.555Z" fill="#E56353"/>
</g>
<defs>
<clipPath id="clip0">
<rect width="44" height="44" fill="white"/>
</clipPath>
</defs>
</svg>
