<svg width="20" height="20" viewBox="0 0 20 20" fill="none" xmlns="http://www.w3.org/2000/svg">
<path fill-rule="evenodd" clip-rule="evenodd" d="M10 19.1668C4.93743 19.1668 0.833374 15.0628 0.833374 10.0002C0.833374 4.93755 4.93743 0.833496 10 0.833496C15.0626 0.833496 19.1667 4.93755 19.1667 10.0002C19.1667 15.0628 15.0626 19.1668 10 19.1668ZM16.1663 14.2708C17.0072 13.0589 17.5001 11.5871 17.5001 10.0002C17.5001 5.85811 14.1422 2.50024 10.0001 2.50024C5.85792 2.50024 2.50006 5.85811 2.50006 10.0002C2.50006 11.5871 2.99287 13.0588 3.83379 14.2708C4.77168 13.032 6.97554 12.5002 10 12.5002C13.0245 12.5002 15.2284 13.032 16.1663 14.2708ZM14.9706 15.6167C14.7267 14.7397 12.9745 14.1669 10 14.1669C7.02557 14.1669 5.27339 14.7397 5.02946 15.6167C6.35278 16.7887 8.09333 17.5002 10.0001 17.5002C11.9068 17.5002 13.6473 16.7887 14.9706 15.6167ZM10 5.00024C7.9826 5.00024 6.66669 6.46338 6.66669 8.33358C6.66669 11.1897 8.13407 12.5002 10 12.5002C11.8484 12.5002 13.3334 11.2333 13.3334 8.50024C13.3334 6.60156 12.0119 5.00024 10 5.00024ZM8.33337 8.33342C8.33337 10.2245 9.01522 10.8334 10 10.8334C10.9815 10.8334 11.6667 10.2487 11.6667 8.50008C11.6667 7.45876 11.0131 6.66675 10 6.66675C8.94482 6.66675 8.33337 7.3466 8.33337 8.33342Z" fill="#8492A4"/>
</svg>
