<svg width="24" height="24" viewBox="0 0 24 24" fill="none" xmlns="http://www.w3.org/2000/svg">
<path fill-rule="evenodd" clip-rule="evenodd" d="M12 24C5.37258 24 0 18.6274 0 12C0 5.37258 5.37258 0 12 0C18.6274 0 24 5.37258 24 12C24 18.6274 18.6274 24 12 24ZM12 21.8182C17.4224 21.8182 21.8182 17.4224 21.8182 12C21.8182 6.57757 17.4224 2.18182 12 2.18182C6.57757 2.18182 2.18182 6.57757 2.18182 12C2.18182 17.4224 6.57757 21.8182 12 21.8182ZM9.20177 16L12 13.2018L14.7982 16L16 14.7982L13.2018 12L16 9.20177L14.7982 8L12 10.7982L9.20177 8L8 9.20177L10.7982 12L8 14.7982L9.20177 16Z" fill="#F7685B"/>
</svg>
