<svg width="20" height="20"  xmlns="http://www.w3.org/2000/svg">
<path d="M12.0065 2H8.68626C8.25306 2 7.90193 2.35109 7.90193 2.78433V17.1895C7.90193 17.6227 8.25303 17.9739 8.68626 17.9739H12.0065C12.4397 17.9739 12.7908 17.6228 12.7908 17.1895V2.78433C12.7908 2.35113 12.4397 2 12.0065 2ZM11.2222 16.4052H9.47055V3.56865H11.2222V16.4052ZM5.10458 8.50979H1.78433C1.35109 8.50979 1 8.86092 1 9.29411V17.2156C1 17.6488 1.35109 18 1.78433 18H5.10458C5.53777 18 5.8889 17.6491 5.8889 17.2156V9.29411C5.88886 8.86092 5.53777 8.50979 5.10458 8.50979ZM4.32025 16.4313H2.56861V10.0784H4.32025V16.4313ZM15.5621 6.65361H18.8823C19.3155 6.65361 19.6666 7.00471 19.6666 7.4379V17.2157C19.6666 17.6492 19.3158 18 18.8823 18H15.5621C15.1288 18 14.7777 17.6489 14.7777 17.2157V7.43794C14.7777 7.00471 15.1289 6.65361 15.5621 6.65361ZM16.3464 16.4313H18.098V8.22223H16.3464V16.4313Z" />
</svg>
