<svg width="19" height="16" viewBox="0 0 19 16" fill="none" xmlns="http://www.w3.org/2000/svg">
<path fill-rule="evenodd" clip-rule="evenodd" d="M11.0065 0H7.68626C7.25306 0 6.90193 0.351093 6.90193 0.784327V15.1895C6.90193 15.6227 7.25303 15.9739 7.68626 15.9739H11.0065C11.4397 15.9739 11.7908 15.6228 11.7908 15.1895V0.784327C11.7908 0.35113 11.4397 0 11.0065 0ZM10.2222 14.4052H8.47055V1.56865H10.2222V14.4052ZM4.10458 6.50979H0.784326C0.351093 6.50979 0 6.86092 0 7.29411V15.2156C0 15.6488 0.351093 16 0.784326 16H4.10458C4.53777 16 4.8889 15.6491 4.8889 15.2156V7.29411C4.88886 6.86092 4.53777 6.50979 4.10458 6.50979ZM3.32025 14.4313H1.56861V8.0784H3.32025V14.4313ZM14.5621 4.65361H17.8823C18.3155 4.65361 18.6666 5.00471 18.6666 5.4379V15.2157C18.6666 15.6492 18.3158 16 17.8823 16H14.5621C14.1288 16 13.7777 15.6489 13.7777 15.2157V5.43794C13.7777 5.00471 14.1289 4.65361 14.5621 4.65361ZM15.3464 14.4313H17.098V6.22223H15.3464V14.4313Z" fill="#C2CFE0"/>
</svg>
