<svg width="20" height="20" xmlns="http://www.w3.org/2000/svg">
<path  d="M3.49637 4.20159C3.22781 3.9328 2.79211 3.9328 2.52355 4.20159C0.896228 5.82894 0 7.99702 0 10.3066C0 12.6162 0.896228 14.7843 2.52355 16.4116C2.6577 16.546 2.83382 16.6132 3.00994 16.6132C3.18606 16.6132 3.36218 16.546 3.49633 16.4116C3.76512 16.143 3.76512 15.7073 3.49633 15.4388C0.666633 12.6089 0.666633 8.00437 3.49633 5.17445C3.76515 4.90589 3.76515 4.47015 3.49637 4.20159ZM6.36273 6.44876C6.09417 6.17998 5.65847 6.17998 5.38991 6.44876C3.26287 8.5758 3.26287 12.0371 5.38991 14.1641C5.52428 14.2985 5.7004 14.3657 5.87656 14.3657C6.05268 14.3657 6.22881 14.2985 6.36273 14.1639C6.63129 13.8954 6.63129 13.4599 6.36273 13.1911C4.77211 11.6005 4.77211 9.01224 6.36273 7.42159C6.63152 7.15303 6.63152 6.71729 6.36273 6.44876ZM15.5036 4.20159C15.7724 3.9328 16.2076 3.9328 16.4764 4.20159C18.1037 5.82894 19 7.99702 19 10.3066C19 12.6162 18.1035 14.7843 16.4764 16.4116C16.342 16.5459 16.1659 16.6131 15.99 16.6131C15.8139 16.6131 15.638 16.5459 15.5036 16.4116C15.2348 16.143 15.2348 15.7073 15.5036 15.4387C18.3335 12.6088 18.3335 8.00433 15.5036 5.17441C15.2348 4.90585 15.2348 4.47015 15.5036 4.20159ZM12.6371 6.44884C12.3683 6.71762 12.3683 7.1531 12.6371 7.42189C13.4053 8.19038 13.8287 9.21479 13.8287 10.3066C13.8287 11.3985 13.4056 12.4226 12.6371 13.1914C12.3683 13.4599 12.3683 13.8956 12.6371 14.1642C12.7715 14.2985 12.9474 14.3658 13.1235 14.3658C13.2994 14.3658 13.4755 14.2985 13.6099 14.1642C14.6382 13.1359 15.2047 11.7658 15.2047 10.3066C15.2047 8.8474 14.6382 7.47714 13.6099 6.44884C13.3411 6.18028 12.9059 6.18006 12.6371 6.44884ZM7.39012 10.3066C7.39012 9.14318 8.3366 8.19674 9.49998 8.19674C10.6634 8.19674 11.6098 9.14321 11.6098 10.3066C11.6098 11.47 10.6634 12.4164 9.49998 12.4164C8.3366 12.4164 7.39012 11.47 7.39012 10.3066ZM8.7661 10.3066C8.7661 10.7111 9.09545 11.0404 9.49998 11.0404C9.90473 11.0404 10.2339 10.7111 10.2339 10.3066C10.2339 9.90199 9.90454 9.57268 9.49998 9.57268C9.09541 9.57268 8.7661 9.90199 8.7661 10.3066Z"/>
</svg>
