<svg width="19" height="13" viewBox="0 0 19 13" fill="none" xmlns="http://www.w3.org/2000/svg">
<path fill-rule="evenodd" clip-rule="evenodd" d="M3.49637 0.201587C3.22781 -0.0671958 2.79211 -0.0671958 2.52355 0.201587C0.896228 1.82894 0 3.99702 0 6.3066C0 8.61617 0.896228 10.7843 2.52355 12.4116C2.6577 12.546 2.83382 12.6132 3.00994 12.6132C3.18606 12.6132 3.36218 12.546 3.49633 12.4116C3.76512 12.143 3.76512 11.7073 3.49633 11.4388C0.666633 8.60886 0.666633 4.00437 3.49633 1.17445C3.76515 0.905886 3.76515 0.470148 3.49637 0.201587ZM6.36273 2.44876C6.09417 2.17998 5.65847 2.17998 5.38991 2.44876C3.26287 4.5758 3.26287 8.03706 5.38991 10.1641C5.52428 10.2985 5.7004 10.3657 5.87656 10.3657C6.05268 10.3657 6.22881 10.2985 6.36273 10.1639C6.63129 9.89535 6.63129 9.45987 6.36273 9.19109C4.77211 7.60047 4.77211 5.01224 6.36273 3.42159C6.63152 3.15303 6.63152 2.71729 6.36273 2.44876ZM15.5036 0.201587C15.7724 -0.0671957 16.2076 -0.0671957 16.4764 0.201587C18.1037 1.82894 19 3.99702 19 6.3066C19 8.61617 18.1035 10.7843 16.4764 12.4116C16.342 12.5459 16.1659 12.6131 15.99 12.6131C15.8139 12.6131 15.638 12.5459 15.5036 12.4116C15.2348 12.143 15.2348 11.7073 15.5036 11.4387C18.3335 8.60883 18.3335 4.00433 15.5036 1.17441C15.2348 0.905849 15.2348 0.470148 15.5036 0.201587ZM12.6371 2.44884C12.3683 2.71762 12.3683 3.1531 12.6371 3.42189C13.4053 4.19038 13.8287 5.21479 13.8287 6.30662C13.8287 7.39845 13.4056 8.42263 12.6371 9.19135C12.3683 9.45991 12.3683 9.89561 12.6371 10.1642C12.7715 10.2985 12.9474 10.3658 13.1235 10.3658C13.2994 10.3658 13.4755 10.2985 13.6099 10.1642C14.6382 9.13587 15.2047 7.76583 15.2047 6.30662C15.2047 4.8474 14.6382 3.47714 13.6099 2.44884C13.3411 2.18028 12.9059 2.18006 12.6371 2.44884ZM7.39012 6.30659C7.39012 5.14318 8.3366 4.19674 9.49998 4.19674C10.6634 4.19674 11.6098 5.14321 11.6098 6.30659C11.6098 7.46997 10.6634 8.41644 9.49998 8.41644C8.3366 8.41644 7.39012 7.47001 7.39012 6.30659ZM8.7661 6.30655C8.7661 6.71112 9.09545 7.04043 9.49998 7.04043C9.90473 7.04043 10.2339 6.71112 10.2339 6.30655C10.2339 5.90199 9.90454 5.57268 9.49998 5.57268C9.09541 5.57268 8.7661 5.90199 8.7661 6.30655Z" fill="#000"/>
</svg>
