<svg width="20" height="20" viewBox="0 0 20 20" fill="none" xmlns="http://www.w3.org/2000/svg">
<path fill-rule="evenodd" clip-rule="evenodd" d="M15.5468 17.4139L17.3945 15.5662L16.7438 13.2022L17.0273 12.5251L19.1667 11.3179V8.70505L17.0333 7.49278L16.7546 6.8169L17.4135 4.45164L15.5645 2.60537L13.2003 3.25591L12.5247 2.97265L11.3174 0.833008H8.70457L7.49231 2.96638L6.81658 3.24506L4.45169 2.58535L2.60563 4.43141L3.25627 6.79607L2.97302 7.47163L0.833374 8.67896V11.291L2.96482 12.506L3.24381 13.1824L2.58501 15.5473L4.43178 17.3941L6.79644 16.7434L7.47207 17.0267L8.67943 19.1655H11.2916L12.5057 17.034L13.182 16.7551L15.5468 17.4139ZM15.7106 11.3543L14.9841 13.0895L15.5302 15.0735L15.0565 15.5471L13.0767 14.9956L11.3408 15.7115L10.3228 17.4988H9.65247L8.64288 15.7104L6.90967 14.9837L4.92459 15.5299L4.45173 15.057L5.00325 13.0772L4.28739 11.3415L2.50004 10.3226V9.65221L4.28929 8.64259L5.01604 6.9093L4.46983 4.92423L4.94172 4.45235L6.92151 5.00463L8.658 4.28847L9.67446 2.49967H10.3441L11.3538 4.28892L13.087 5.01567L15.0725 4.46936L15.5466 4.94272L14.9951 6.92214L15.7112 8.65847L17.5 9.67494V10.3446L15.7106 11.3543ZM10 13.333C8.15909 13.333 6.66671 11.8406 6.66671 9.99967C6.66671 8.15873 8.15909 6.66634 10 6.66634C11.841 6.66634 13.3334 8.15873 13.3334 9.99967C13.3334 11.8406 11.841 13.333 10 13.333ZM11.6667 9.99967C11.6667 10.9201 10.9205 11.6663 10 11.6663C9.07957 11.6663 8.33337 10.9201 8.33337 9.99967C8.33337 9.0792 9.07957 8.33301 10 8.33301C10.9205 8.33301 11.6667 9.0792 11.6667 9.99967Z" fill="#8492A4"/>
</svg>
