<svg width="17" height="17" viewBox="0 0 17 17" fill="none" xmlns="http://www.w3.org/2000/svg">
<path d="M16.3187 15.6374H2.32614L3.04962 14.9149H4.85246C4.98873 14.9154 5.12198 14.8747 5.23483 14.7984C5.34768 14.722 5.43489 14.6133 5.4851 14.4867L7.18639 10.2334L8.54088 11.5879C8.6206 11.6676 8.71885 11.7262 8.82681 11.7586C8.93476 11.7909 9.04907 11.796 9.15947 11.7734C9.26988 11.7507 9.37294 11.701 9.45941 11.6287C9.54588 11.5564 9.61308 11.4638 9.65496 11.3592L11.355 7.10496L12.7094 8.45912C12.7915 8.54123 12.8933 8.601 13.005 8.63274C13.1166 8.66449 13.2346 8.66716 13.3476 8.64051C13.4606 8.61386 13.5649 8.55876 13.6507 8.48046C13.7364 8.40215 13.8007 8.30323 13.8375 8.19309L15.9226 1.9391C15.9696 1.77074 15.95 1.59075 15.8681 1.43637C15.7861 1.28199 15.6479 1.16504 15.482 1.1097C15.3162 1.05436 15.1355 1.06487 14.9772 1.13905C14.8189 1.21324 14.6952 1.34542 14.6317 1.50826L12.8934 6.7176L11.5879 5.4121C11.5082 5.33243 11.4099 5.27379 11.302 5.24142C11.194 5.20905 11.0797 5.20397 10.9693 5.22664C10.8589 5.2493 10.7558 5.29901 10.6694 5.37129C10.5829 5.44358 10.5157 5.53619 10.4738 5.64082L8.77252 9.89504L7.41803 8.54088C7.33843 8.4611 7.24027 8.40231 7.13236 8.36978C7.02445 8.33726 6.91015 8.33202 6.79971 8.35452C6.68928 8.37703 6.58615 8.42658 6.49957 8.49874C6.41299 8.57089 6.34567 8.66341 6.30363 8.76798L4.3895 13.552H2.76737C2.67786 13.5518 2.5892 13.5693 2.50651 13.6035C2.42382 13.6378 2.34873 13.6881 2.28559 13.7515L1.3626 14.6739V0.681298C1.3626 0.500606 1.29082 0.327316 1.16305 0.199547C1.03528 0.0717794 0.861989 0 0.681298 0C0.500606 0 0.327316 0.0717794 0.199547 0.199547C0.0717794 0.327316 0 0.500606 0 0.681298L0 16.3187C0 16.4994 0.0717794 16.6727 0.199547 16.8005C0.327316 16.9282 0.500606 17 0.681298 17H16.3187C16.4994 17 16.6727 16.9282 16.8005 16.8005C16.9282 16.6727 17 16.4994 17 16.3187C17 16.138 16.9282 15.9647 16.8005 15.837C16.6727 15.7092 16.4994 15.6374 16.3187 15.6374Z" fill="white"/>
</svg>
