<svg width="18" height="18" viewBox="0 0 18 18" fill="none" xmlns="http://www.w3.org/2000/svg">
<path fill-rule="evenodd" clip-rule="evenodd" d="M9.9 8.90998V15.3H8.1V8.90998C6.04598 8.49304 4.5 6.67706 4.5 4.5C4.5 2.01472 6.51472 0 9 0C11.4853 0 13.5 2.01472 13.5 4.5C13.5 6.67706 11.954 8.49304 9.9 8.90998ZM6.3 10.9416V12.7659C3.66047 13.0954 1.8 13.8481 1.8 14.4C1.8 15.1262 5.02123 16.2 9 16.2C12.9788 16.2 16.2 15.1262 16.2 14.4C16.2 13.8481 14.3395 13.0954 11.7 12.7659V10.9416C15.3503 11.3415 18 12.571 18 14.4C18 16.6561 13.9682 18 9 18C4.03176 18 0 16.6561 0 14.4C0 12.571 2.64971 11.3415 6.3 10.9416ZM11.7 4.5C11.7 5.99117 10.4912 7.2 9 7.2C7.50883 7.2 6.3 5.99117 6.3 4.5C6.3 3.00883 7.50883 1.8 9 1.8C10.4912 1.8 11.7 3.00883 11.7 4.5Z" fill="#C2CFE0"/>
</svg>
