<svg width="48" height="48" viewBox="0 0 48 48" fill="none" xmlns="http://www.w3.org/2000/svg">
<circle cx="24" cy="24" r="24" fill="#DCE9E9"/>
<path fill-rule="evenodd" clip-rule="evenodd" d="M28.4308 16.286V28.04C28.9889 28.8741 29.2872 29.8549 29.288 30.8585V30.8748C29.2809 33.7125 26.9747 36.0071 24.1371 36C23.7876 36.0001 23.4391 35.9656 23.0964 35.8971C21.1284 35.4825 19.5802 33.9628 19.1293 32.0028C18.8152 30.6378 19.0792 29.2037 19.8588 28.04V16.286C19.8616 13.9201 21.7788 12.0028 24.1448 12C26.5107 12.0028 28.4279 13.9201 28.4308 16.286ZM26.3178 33.5158L26.3195 33.5141C27.7406 32.3588 27.9919 30.2857 26.8878 28.8243C26.7765 28.676 26.7164 28.4955 26.7164 28.31V16.286C26.7164 14.8657 25.565 13.7144 24.1448 13.7144C22.7245 13.7144 21.5731 14.8657 21.5731 16.286V28.3092C21.5731 28.4946 21.513 28.6751 21.4017 28.8235C20.7963 29.6241 20.5765 30.6517 20.8017 31.6299C20.92 32.1464 21.1564 32.6284 21.4923 33.0381C22.6929 34.5026 24.8534 34.7164 26.3178 33.5158ZM25.0019 29.3824C25.2625 29.5329 25.4789 29.7493 25.6294 30.0099C26.1028 30.8299 25.8219 31.8784 25.0018 32.3518C24.1818 32.8252 23.1333 32.5443 22.6599 31.7243C22.1865 30.9043 22.4674 29.8558 23.2874 29.3824V21.4292C23.2874 20.9558 23.6712 20.572 24.1446 20.572C24.6181 20.572 25.0019 20.9558 25.0019 21.4292V29.3824Z" fill="#334D6E"/>
</svg>
