<svg width="14" height="18" viewBox="0 0 14 18" fill="none" xmlns="http://www.w3.org/2000/svg">
<g clip-path="url(#clip0)">
<path d="M6.912 4.17578C5.40276 4.17578 4.17493 5.40362 4.17493 6.91282C4.17493 8.19821 5.06582 9.27893 6.26238 9.57139V17.3501C6.26238 17.7089 6.55324 17.9997 6.912 17.9997C7.27077 17.9997 7.56162 17.7089 7.56162 17.3501V9.57139C8.75818 9.27893 9.64908 8.19826 9.64908 6.91282C9.64908 5.40362 8.42125 4.17578 6.912 4.17578Z" fill="white"/>
<path d="M6.91201 0C3.1007 0 0 3.1007 0 6.91196C0 8.87561 0.839662 10.7534 2.30361 12.0638C2.57091 12.3031 2.98156 12.2804 3.22093 12.013C3.46016 11.7457 3.43747 11.335 3.17013 11.0957C1.98118 10.0315 1.29925 8.50653 1.29925 6.91196C1.29925 3.81711 3.81715 1.29925 6.91201 1.29925C10.0069 1.29925 12.5248 3.81711 12.5248 6.91196C12.5248 8.50653 11.8428 10.0315 10.6538 11.0958C10.3864 11.335 10.3637 11.7457 10.603 12.0131C10.7313 12.1564 10.9088 12.2294 11.0872 12.2294C11.2415 12.2294 11.3963 12.1748 11.5203 12.0639C12.9844 10.7535 13.8241 8.87561 13.8241 6.91196C13.8241 3.1007 10.7233 0 6.91201 0Z" fill="white"/>
</g>
<defs>
<clipPath id="clip0">
<rect width="13.8241" height="18" fill="white"/>
</clipPath>
</defs>
</svg>
