<svg width="150" height="150" viewBox="0 0 150 150" fill="none" xmlns="http://www.w3.org/2000/svg">
<path d="M75.0011 7.00022C75.3339 6.9916 75.6618 7.08205 75.9431 7.26009C76.2244 7.43813 76.4465 7.69574 76.5811 8.00022L142.801 140.42C142.939 140.689 143.004 140.99 142.992 141.292C142.98 141.594 142.89 141.887 142.731 142.145C142.572 142.402 142.35 142.614 142.086 142.76C141.821 142.907 141.523 142.982 141.221 142.98H8.78112C8.47885 142.982 8.18113 142.907 7.91664 142.76C7.65215 142.614 7.42982 142.402 7.27106 142.145C7.1123 141.887 7.02247 141.594 7.01022 141.292C6.99797 140.99 7.06371 140.689 7.20112 140.42L73.4211 8.00022C73.5558 7.69574 73.7778 7.43813 74.0591 7.26009C74.3405 7.08205 74.6683 6.9916 75.0011 7.00022ZM75.0011 0.000219747C73.3715 -0.0113808 71.7717 0.436532 70.385 1.29259C68.9983 2.14865 67.881 3.3782 67.1611 4.84022L0.94112 137.29C0.265619 138.627 -0.0556901 140.115 0.00789584 141.612C0.0714818 143.109 0.517838 144.564 1.30431 145.839C2.09079 147.114 3.1911 148.166 4.5001 148.895C5.8091 149.623 7.28306 150.004 8.78112 150H141.221C142.716 150.002 144.187 149.621 145.494 148.894C146.8 148.166 147.899 147.117 148.685 145.844C149.471 144.572 149.918 143.12 149.984 141.626C150.05 140.132 149.732 138.647 149.061 137.31L82.8411 4.84022C82.1213 3.3782 81.0039 2.14865 79.6173 1.29259C78.2306 0.436532 76.6307 -0.0113808 75.0011 0.000219747Z" fill="#FFB946" fill-opacity="0.5"/>
<path d="M75.0012 54.0502V104.48" stroke="#FFB946" stroke-width="10" stroke-linecap="round" stroke-linejoin="round"/>
<path d="M75.0011 128.06C77.9614 128.06 80.3611 125.66 80.3611 122.7C80.3611 119.74 77.9614 117.34 75.0011 117.34C72.0409 117.34 69.6411 119.74 69.6411 122.7C69.6411 125.66 72.0409 128.06 75.0011 128.06Z" fill="#FFB946"/>
</svg>
